<?xml version="1.0" encoding="UTF-8" standalone="no"?>
<!-- Created with Inkscape (http://www.inkscape.org/) -->

<svg
   xmlns:dc="http://purl.org/dc/elements/1.1/"
   xmlns:cc="http://creativecommons.org/ns#"
   xmlns:rdf="http://www.w3.org/1999/02/22-rdf-syntax-ns#"
   xmlns:svg="http://www.w3.org/2000/svg"
   xmlns="http://www.w3.org/2000/svg"
   xmlns:sodipodi="http://sodipodi.sourceforge.net/DTD/sodipodi-0.dtd"
   xmlns:inkscape="http://www.inkscape.org/namespaces/inkscape"
   id="svg3036"
   version="1.1"
   inkscape:version="0.48.3.1 r9886"
   width="188"
   height="285"
   sodipodi:docname="dalek.svg">
  <metadata
     id="metadata3042">
    <rdf:RDF>
      <cc:Work
         rdf:about="">
        <dc:format>image/svg+xml</dc:format>
        <dc:type
           rdf:resource="http://purl.org/dc/dcmitype/StillImage" />
        <dc:title></dc:title>
      </cc:Work>
    </rdf:RDF>
  </metadata>
  <defs
     id="defs3040">
    <filter
       id="filter3056"
       inkscape:label="Lightness-Contrast"
       x="0"
       y="0"
       width="1"
       height="1"
       inkscape:menu="Color"
       inkscape:menu-tooltip="Increase or decrease lightness and contrast"
       color-interpolation-filters="sRGB">
      <feColorMatrix
         id="feColorMatrix3058"
         type="saturate"
         values="0"
         result="fbSourceGraphic" />
      <feColorMatrix
         result="fbSourceGraphicAlpha"
         in="fbSourceGraphic"
         values="0 0 0 -1 0 0 0 0 -1 0 0 0 0 -1 0 0 0 0 1 0"
         id="feColorMatrix3060" />
      <feFlood
         id="feFlood3062"
         result="result1"
         flood-opacity="0"
         flood-color="rgb(128,128,128)"
         in="fbSourceGraphic" />
      <feBlend
         id="feBlend3064"
         in2="fbSourceGraphic"
         mode="normal"
         result="result2" />
      <feComposite
         id="feComposite3066"
         in2="fbSourceGraphic"
         k2="1"
         operator="arithmetic"
         result="result3"
         k1="0"
         k3="0"
         k4="0" />
      <feComposite
         id="feComposite3068"
         in2="fbSourceGraphic"
         operator="in"
         result="fbSourceGraphic" />
      <feColorMatrix
         result="fbSourceGraphicAlpha"
         in="fbSourceGraphic"
         values="0 0 0 -1 0 0 0 0 -1 0 0 0 0 -1 0 0 0 0 1 0"
         id="feColorMatrix3070" />
      <feFlood
         id="feFlood3072"
         result="result1"
         flood-opacity="0"
         flood-color="rgb(128,128,128)"
         in="fbSourceGraphic" />
      <feBlend
         id="feBlend3074"
         in2="fbSourceGraphic"
         mode="normal"
         result="result2" />
      <feComposite
         id="feComposite3076"
         in2="fbSourceGraphic"
         k2="1"
         operator="arithmetic"
         result="result4"
         k1="0"
         k3="0"
         k4="0" />
      <feComposite
         id="feComposite3078"
         in2="fbSourceGraphic"
         operator="in"
         result="fbSourceGraphic" />
      <feColorMatrix
         result="fbSourceGraphicAlpha"
         in="fbSourceGraphic"
         values="0 0 0 -1 0 0 0 0 -1 0 0 0 0 -1 0 0 0 0 1 0"
         id="feColorMatrix3080" />
      <feFlood
         id="feFlood3082"
         result="result1"
         flood-opacity="0"
         flood-color="rgb(128,128,128)"
         in="fbSourceGraphic" />
      <feBlend
         id="feBlend3084"
         in2="fbSourceGraphic"
         mode="normal"
         result="result2" />
      <feComposite
         id="feComposite3086"
         in2="fbSourceGraphic"
         k2="1"
         operator="arithmetic"
         result="result5"
         k1="0"
         k3="0"
         k4="0" />
      <feComposite
         id="feComposite3088"
         in2="fbSourceGraphic"
         operator="in" />
    </filter>
  </defs>
  <sodipodi:namedview
     pagecolor="#ffffff"
     bordercolor="#666666"
     borderopacity="1"
     objecttolerance="10"
     gridtolerance="10"
     guidetolerance="10"
     inkscape:pageopacity="1"
     inkscape:pageshadow="2"
     inkscape:window-width="1916"
     inkscape:window-height="1041"
     id="namedview3038"
     showgrid="false"
     inkscape:zoom="2.9964913"
     inkscape:cx="26.893886"
     inkscape:cy="140.45945"
     inkscape:window-x="1600"
     inkscape:window-y="18"
     inkscape:window-maximized="0"
     inkscape:current-layer="svg3036"
     showguides="true"
     inkscape:guide-bbox="true" />
  <path
     style="fill:#000000;fill-opacity:1"
     d="m 90.63403,281.94532 c -0.908579,-0.64351 -3.842137,-0.79809 -7.712899,-0.40643 -4.534678,0.45884 -6.059281,0.32893 -5.563034,-0.47402 0.488827,-0.79092 9.510158,-1.06104 31.662033,-0.94801 22.32654,0.11396 28.93089,0.38367 23.64708,0.96582 -12.98262,1.43041 -40.436064,1.99384 -42.03318,0.86264 z m -27.636635,-0.737 c 1.735314,-0.21593 4.81449,-0.21949 6.842613,-0.007 2.028112,0.2116 0.608308,0.38828 -3.15513,0.39263 -3.763437,0.004 -5.422813,-0.16881 -3.687483,-0.38476 z m 82.377525,-0.27201 c 1.10895,-0.71666 0.67417,-0.95122 -1.78402,-0.96254 l -3.25032,-0.0152 0.67706,-9.04203 c 0.37238,-4.97311 0.7353,-9.4819 0.80651,-10.01955 0.0827,-0.62495 -11.85716,-1.19257 -33.10609,-1.57385 -18.279532,-0.32798 -38.691631,-0.76787 -45.360188,-0.97751 l -12.124662,-0.38118 -1.154018,3.42132 c -1.216305,3.60597 -3.463764,4.60507 -7.870842,3.49895 -1.765937,-0.44322 -2.241946,-1.18147 -2.099986,-3.25693 0.151152,-2.20985 -0.24802,-2.72263 -2.260222,-2.90354 -1.344083,-0.12083 -1.893937,0.0253 -1.221894,0.32484 1.79083,0.79813 1.493077,2.6475 -0.733136,4.55365 -2.221957,1.9025 -2.789816,8.52547 -0.733139,8.55068 0.815715,0.0111 0.737196,0.3214 -0.236209,0.93681 -0.939736,0.59411 -1.113493,1.22794 -0.488755,1.7829 1.424764,1.26562 19.514051,4.1225 26.873529,4.24419 l 6.353857,0.10513 -6.346712,0.90569 c -4.24601,0.60591 -7.092291,0.56597 -8.599271,-0.12069 -2.866106,-1.30588 -5.137938,-1.34124 -3.13807,-0.0488 2.017817,1.30401 -1.061853,1.27775 -10.076678,-0.0858 -11.09062,-1.67763 -11.054864,-1.62969 -11.165609,-14.9651 l -0.09409,-11.32986 3.025946,-0.78411 c 4.279782,-1.10899 5.493215,-5.03856 2.746876,-8.89543 -3.832894,-5.38281 -2.119043,-12.18114 3.848858,-15.26727 3.959686,-2.04762 4.839736,-7.02952 2.041553,-11.55709 -1.131384,-1.83065 -2.05706,-4.42687 -2.05706,-5.7694 0,-2.93181 3.327069,-7.41892 6.354354,-8.56989 3.004879,-1.14244 3.568917,-5.16104 1.338456,-9.53597 -3.081515,-6.0442 -1.79411,-11.90292 3.180904,-14.47558 3.412444,-1.76467 4.466482,-4.9 2.410865,-7.17142 -1.039265,-1.1484 -1.554378,-3.56949 -1.554378,-7.30576 0,-4.6298 0.411502,-5.9997 2.399355,-7.98755 1.319654,-1.31966 2.910522,-2.39935 3.535261,-2.39935 0.705232,0 0.945798,-0.99451 0.634487,-2.62303 -0.275786,-1.44268 0.181653,-4.05547 1.016519,-5.80622 1.484507,-3.11303 1.449952,-3.26064 -1.567555,-6.69739 -1.697036,-1.93281 -3.080299,-3.60888 -3.073916,-3.72457 0.0069,-0.11571 0.671228,-2.6297 1.477446,-5.5867 l 1.465847,-5.37637 -2.5168,-1.95503 c -5.270849,-4.09423 -29.294925,-16.22687 -31.229865,-15.7716 -1.075268,0.25301 -3.852374,1.1633 -6.171347,2.02289 -3.834489,1.42137 -4.508271,1.42435 -7.4403078,0.033 -9.2644427,-4.39626 -6.0437654,-20.335155 4.8344408,-23.925287 6.116753,-2.018709 10.914197,1.998281 11.9298,9.989046 0.293014,2.305428 1.003579,4.785501 1.579032,5.511281 0.575451,0.72578 7.352212,4.43916 15.059463,8.25194 l 14.013186,6.93233 4.103849,-1.4963 4.103838,-1.49629 1.665269,-8.2219 c 0.915904,-4.52206 2.355806,-9.39882 3.19979,-10.837249 1.231682,-2.099187 1.31183,-3.104083 0.406103,-5.091918 -0.916236,-2.01094 -0.824067,-2.941075 0.490234,-4.946956 1.180302,-1.801368 1.446176,-3.548908 0.981777,-6.453079 -0.562013,-3.514646 -0.296088,-4.349129 2.262685,-7.100465 2.627213,-2.824968 8.121931,-13.688868 8.121931,-16.058351 0,-1.005093 7.118323,-7.751936 12.646052,-11.986105 l 3.190388,-2.443781 -2.124064,-2.688173 c -1.168241,-1.478491 -2.993762,-2.688168 -4.056704,-2.688168 -3.17853,0 -7.720668,-2.857952 -8.720148,-5.486795 -1.460323,-3.840932 -1.151047,-5.058772 1.997025,-7.863718 2.42605,-2.161621 2.93255,-3.362813 2.93255,-6.954737 0,-3.457797 -0.298543,-4.227264 -1.466276,-3.779165 -0.893165,0.34274 -1.466274,0.0016 -1.466274,-0.872932 0,-1.7577605 1.126734,-1.8413396 2.880917,-0.213701 1.0791,1.001265 1.198621,0.888049 0.661887,-0.6270204 -0.556989,-1.5722455 -0.43094,-1.6629549 0.842393,-0.6061854 0.823568,0.6835035 1.764477,2.9129188 2.0909,4.9542598 0.457847,2.863269 1.218619,3.970465 3.328695,4.844489 3.327823,1.378424 5.314994,5.767058 4.486668,9.908686 -0.781807,3.909044 0.717947,5.719303 4.73831,5.719303 1.8282,0 3.8397,0.762009 4.79345,1.815874 1.21999,1.348086 3.58771,1.962926 9.19115,2.386713 6.26657,0.47394 8.91677,1.264956 15.61213,4.659813 6.76686,3.431117 8.30851,3.886293 9.5822,2.829217 1.25335,-1.040198 1.79287,-0.984795 3.09552,0.317869 1.29901,1.299007 1.35624,1.844377 0.32408,3.088065 -1.03059,1.241787 -0.96692,1.947904 0.35799,3.969959 0.88634,1.352736 2.90454,6.261118 4.4849,10.907513 1.58036,4.646399 3.76644,9.398611 4.85796,10.560469 2.06639,2.199568 2.56568,5.909438 1.10554,8.21443 -0.5332,0.841709 -0.25898,2.368562 0.73706,4.104062 1.33019,2.317753 1.39323,3.274737 0.39061,5.930962 -0.96129,2.546742 -0.94429,3.466315 0.0867,4.693586 1.64798,1.961609 3.30494,7.907219 4.10294,14.722769 0.34625,2.95697 1.75832,10.15677 3.13794,15.99954 2.15604,9.13085 2.34078,11.08694 1.31491,13.92397 -1.92493,5.32326 1.24855,19.26841 5.48149,24.08706 3.89092,4.42934 4.10094,7.71309 0.74822,11.69758 -1.58508,1.88377 -2.26422,3.60259 -1.8897,4.7826 0.32154,1.01311 0.62682,3.2724 0.67842,5.02066 0.0517,1.74825 0.2788,2.6288 0.5049,1.95675 0.69124,-2.05456 2.13791,-1.37612 4.16894,1.95503 2.53816,4.16282 2.44805,5.84958 -0.49944,9.35253 -3.59615,4.27373 -3.23924,8.10231 1.14042,12.23428 4.25514,4.0145 4.7781,8.19443 1.46626,11.7197 -3.26579,3.47626 -2.79667,7.98283 1.30336,12.5211 3.98471,4.4106 4.41882,8.11465 1.40069,11.95159 -1.21442,1.54386 -1.89695,3.63158 -1.71065,5.23245 0.25506,2.1919 0.97308,2.81955 4.05379,3.5437 l 3.74379,0.88006 -0.669,8.43769 c -0.36796,4.64072 -1.1729,8.94775 -1.78879,9.57118 -1.4507,1.46853 -20.23324,5.2494 -25.4494,5.12293 -3.45776,-0.0838 -3.67741,-0.20663 -1.57455,-0.88007 1.88675,-0.60424 1.21828,-0.80145 -2.93255,-0.86512 -3.27877,-0.0504 -4.86738,0.24016 -4.07182,0.74445 0.97437,0.61765 0.72694,0.98159 -0.9775,1.43797 -1.25513,0.33604 -2.94187,0.61029 -3.74832,0.60939 -1.30335,-9.5e-4 -1.30335,-0.10696 0,-0.94921 z m -99.706645,-1.95503 c 0,-0.53762 -0.989736,-0.94661 -2.199411,-0.90881 -2.098632,0.0657 -2.10983,0.10725 -0.244381,0.90881 1.075268,0.46207 2.065005,0.87102 2.199413,0.9088 0.134404,0.0378 0.244379,-0.37116 0.244379,-0.9088 z m 118.809405,-0.0665 c 0.35495,-0.57428 1.31641,-0.78662 2.13662,-0.47187 0.82022,0.31472 2.0761,0.0868 2.79085,-0.5063 0.71475,-0.59318 1.7283,-0.81354 2.25235,-0.48966 0.52404,0.32387 1.25112,0.10611 1.61575,-0.48381 0.3646,-0.58995 1.71465,-0.80871 3.00008,-0.4861 1.43691,0.36066 2.33715,0.15899 2.33715,-0.52355 0,-0.62232 0.84413,-0.88939 1.92102,-0.60779 2.27728,0.59553 2.63422,-0.33254 3.4751,-9.03531 0.33567,-3.47444 0.78516,-6.60005 0.99884,-6.94577 0.21366,-0.34574 -0.63324,-0.43331 -1.88202,-0.19456 -1.48035,0.28296 -3.14955,-0.38064 -4.79634,-1.90682 -2.41223,-2.2356 -2.8912,-2.30529 -10.652,-1.54995 -7.08487,0.68952 -8.28275,0.57869 -9.34807,-0.86504 -1.44012,-1.95165 -1.54339,-4.14794 -0.28834,-6.13219 0.74346,-1.17536 1.27327,-0.95874 2.98855,1.2219 2.4651,3.13388 3.86327,3.29486 6.94479,0.79957 2.23779,-1.81204 2.33495,-1.81234 4.62202,-0.0126 1.28489,1.0107 2.72435,1.59771 3.19879,1.30449 1.47,-0.9085 0.94997,-2.16252 -0.83757,-2.01978 -0.93509,0.0745 -2.13913,-0.85396 -2.67559,-2.06364 -1.24875,-2.81584 -1.86997,-2.76714 -3.88245,0.30426 -1.06545,1.6261 -2.35476,2.39702 -3.67828,2.19942 -2.04043,-0.30465 -2.72002,-1.17079 -4.40804,-5.61793 -0.88327,-2.32703 -0.95797,-2.28266 -3.28937,1.95504 -3.93231,7.14755 -9.42754,6.22319 -11.63007,-1.95631 -0.74567,-2.76916 -0.6869,-4.75496 0.22282,-7.53177 1.15957,-3.53945 1.47488,-3.77108 5.13357,-3.77108 3.54594,0 4.05404,0.33116 5.62415,3.66568 1.90715,4.05034 2.45012,4.34788 4.04668,2.21767 0.76064,-1.01491 1.52389,-1.16558 2.55156,-0.50376 1.23178,0.79331 1.17272,0.94672 -0.36933,0.95929 -1.60414,0.0126 -1.75369,0.52707 -1.18616,4.07617 0.35718,2.23367 0.87924,4.4331 1.16014,4.88759 1.07429,1.73823 3.24796,0.69771 5.22497,-2.50115 1.73952,-2.81459 1.87882,-3.71754 0.90381,-5.85746 -0.92031,-2.01988 -1.4285,-2.30104 -2.52072,-1.39457 -1.06617,0.88484 -1.30192,0.83434 -1.06845,-0.22882 0.17274,-0.78691 -0.63116,-1.50616 -1.8999,-1.69975 -2.5357,-0.38687 -2.90839,-1.94389 -0.6708,-2.80256 2.37201,-0.91022 6.10613,1.26857 6.46068,3.76964 0.41918,2.95689 2.03695,2.88815 2.74629,-0.11676 0.30789,-1.30424 1.15874,-2.57099 1.8908,-2.81501 0.88101,-0.29364 1.0687,-0.0194 0.55513,0.81171 -0.5281,0.85449 -0.38828,1.01584 0.43786,0.50523 0.89072,-0.55047 0.92443,-1.03941 0.12658,-1.83721 -0.79776,-0.79776 -1.57246,-0.78395 -2.91085,0.052 -1.42526,0.8901 -2.22087,0.83813 -3.64126,-0.23779 -3.01719,-2.28541 -7.07257,-1.79717 -8.34943,1.00525 l -1.11361,2.44415 -1.73053,-2.84564 c -3.51023,-5.77209 -9.77134,-5.19407 -12.65988,1.16876 -2.93751,6.47081 -2.02728,12.59359 2.42111,16.28543 2.84716,2.36291 1.86057,4.10888 -2.13494,3.7782 l -3.6657,-0.30344 -0.48873,-7.82015 c -0.46266,-7.40227 -0.6063,-7.80767 -2.68818,-7.58726 -1.81396,0.19206 -2.19941,-0.24816 -2.19941,-2.51186 0,-1.73272 -0.93067,-3.55397 -2.52407,-4.9394 -1.67881,-1.45971 -2.30744,-2.74632 -1.87718,-3.84198 0.35574,-0.90601 1.02563,-3.84674 1.48859,-6.53489 0.46296,-2.68817 1.13814,-6.29432 1.50045,-8.01362 0.50351,-2.38955 0.0588,-4.19954 -1.88783,-7.68228 l -2.54649,-4.55624 2.0025,-2.81226 c 1.10138,-1.54673 2.48698,-5.41732 3.07909,-8.60126 1.17702,-6.32905 0.24774,-10.22962 -3.17517,-13.3273 -1.74819,-1.58206 -1.72865,-1.70262 0.60562,-3.73637 3.58862,-3.12658 5.27742,-13.05533 3.02426,-17.78019 l -1.63755,-3.43405 2.68453,-1.03014 c 5.69508,-2.18538 13.08878,-0.80789 23.48421,4.37526 5.40014,2.6925 6.07024,3.33376 5.58155,5.3412 -0.35218,1.44653 -0.18336,2.05137 0.46131,1.65294 1.39614,-0.86288 1.28916,-6.37805 -0.12363,-6.37805 -0.62724,0 -0.84588,-0.29456 -0.48587,-0.65455 0.77811,-0.77813 -6.21724,-5.09297 -11.07375,-6.83051 -2.14911,-0.76889 -2.69925,-1.24055 -1.47393,-1.26367 2.00154,-0.0376 4.60141,1.11797 9.77518,4.34547 1.61289,1.00615 2.3827,1.22079 1.71064,0.47702 -0.67204,-0.7438 -1.2219,-3.62244 -1.2219,-6.39699 l 0,-5.04466 -5.70218,-3.03923 c -6.20365,-3.30651 -7.52838,-6.03079 -2.93254,-6.03079 1.52329,0 2.76962,0.43151 2.76962,0.95889 0,0.5274 1.00955,1.21227 2.24345,1.52196 1.23386,0.30968 2.77719,1.41776 3.42958,2.46239 1.48836,2.38329 0.53851,2.40136 -3.29646,0.0627 -1.64988,-1.0061 -4.06924,-2.11606 -5.37633,-2.46658 -1.30713,-0.35049 0.48266,0.86899 3.97729,2.71 3.49462,1.84098 6.62421,3.18335 6.95468,2.98305 0.69842,-0.42337 0.50676,-3.18477 -0.36784,-5.29994 -0.33346,-0.80645 -1.09133,-3.93776 -1.68414,-6.95845 -0.59282,-3.02069 -1.68454,-6.31981 -2.42601,-7.33135 -0.76603,-1.04509 -1.12196,-2.97473 -0.82438,-4.46902 0.45129,-2.26594 -0.19924,-7.58998 -2.12716,-17.40926 -0.26391,-1.344085 -1.25476,-3.012582 -2.2019,-3.707767 -1.85221,-1.35949 -1.81462,-2.24307 0.14207,-3.338074 1.053,-0.589308 1.18571,-1.753739 0.66111,-5.80167 -0.0447,-0.345703 -0.73486,-0.879281 -1.53343,-1.185726 -1.20152,-0.46106 -1.25175,-0.23657 -0.2913,1.301366 0.89643,1.435407 0.89514,2.373013 -0.005,4.118274 -1.22768,2.378647 -1.27949,6.833159 -0.0707,6.08614 0.88819,-0.548947 2.2135,1.481907 1.45927,2.236147 -0.83944,0.83946 -5.64819,-2.595796 -5.03116,-3.594157 0.2947,-0.476864 0.0207,-1.185328 -0.60865,-1.574363 -0.76342,-0.471829 -0.88087,-0.280781 -0.35272,0.573802 0.629,1.017717 0.10738,1.107674 -2.53713,0.437515 -1.83065,-0.463983 -5.96796,-0.896417 -9.19376,-0.960955 -5.23128,-0.104657 -7.27675,-0.980969 -5.62692,-2.410655 0.3102,-0.268815 0.20139,0.135847 -0.24182,0.899254 -0.60838,1.047927 -0.38768,1.227557 0.90074,0.733139 0.93863,-0.360182 2.99027,-0.654876 4.55918,-0.654876 1.56894,0 2.8526,-0.396008 2.8526,-0.880017 0,-1.988594 -20.75759,-4.934375 -35.00825,-4.968142 -9.507682,-0.02252 -27.42937,2.74896 -30.48532,4.714386 -1.344086,0.864444 -2.663733,1.621142 -2.93255,1.681551 -2.476939,0.556604 -3.627378,1.788359 -3.199273,3.425417 0.593264,2.268641 0.0695,2.239881 5.27578,0.289664 2.352541,-0.881234 6.586731,-1.894149 9.40931,-2.250924 4.25502,-0.537835 5.140718,-0.389324 5.183232,0.869103 0.03733,1.105212 0.468318,0.919928 1.585502,-0.681625 0.843831,-1.209678 2.324368,-2.199413 3.290085,-2.199413 2.893674,0 5.175692,-1.148561 3.876874,-1.951273 -0.624447,-0.385929 2.162646,-0.643713 6.19353,-0.572855 4.03089,0.07088 7.11825,-0.211988 6.86079,-0.628551 -0.25744,-0.416564 1.64731,-0.722662 4.23281,-0.680216 2.58549,0.04244 4.14828,0.299958 3.47289,0.572249 -2.4702,0.99589 -0.12421,2.11394 2.72255,1.297502 3.67789,-1.054806 11.18107,-0.07335 8.23833,1.077618 -1.05202,0.411463 -2.79251,0.772296 -3.86778,0.801851 -1.63727,0.045 -1.7167,-0.11126 -0.48875,-0.961358 1.20519,-0.834355 1.11816,-0.95189 -0.48878,-0.660114 -1.17211,0.212822 -1.77818,0.918927 -1.51337,1.763203 0.24288,0.77452 0.61035,4.157481 0.81653,7.5177 0.28348,4.61966 0.0567,6.11796 -0.93041,6.14431 -0.7179,0.0191 0.86015,1.04723 3.50681,2.28461 4.35515,2.03613 5.07456,2.11885 7.57588,0.87101 2.6661,-1.33003 2.74361,-1.57482 2.19326,-6.9278 -0.31378,-3.05198 -0.75402,-6.135672 -0.9783,-6.852639 -0.22505,-0.719403 0.14005,-1.12183 0.81475,-0.898006 1.75952,0.583695 2.23435,13.456735 0.54039,14.650145 -1.00373,0.70715 -1.01452,1.00157 -0.051,1.39254 1.97073,0.79965 1.49283,3.30558 -0.48875,2.56295 -1.38474,-0.51894 -1.49737,-0.37341 -0.59119,0.76383 0.74835,0.93913 0.85126,2.70118 0.31043,5.31498 l -0.80908,3.91005 0.13458,-4.05703 c 0.12307,-3.71669 -1.41173,-7.18438 -3.18002,-7.18438 -0.39545,0 -1.26594,4.00231 -1.93444,8.89404 -0.92418,6.76282 -0.94286,9.16374 -0.078,10.01954 1.26911,1.25574 2.93121,-0.84997 4.12689,-5.22839 0.36705,-1.34407 0.42193,0.19551 0.12195,3.42133 -0.3,3.22579 -0.71485,6.05294 -0.92196,6.28259 -0.20711,0.22962 -1.70557,-0.85577 -3.3299,-2.41198 -2.20988,-2.1172 -2.83287,-3.45268 -2.47473,-5.30508 0.26324,-1.3616 0.76829,-5.44482 1.12236,-9.07384 0.5683,-5.82468 0.44779,-6.59821 -1.0279,-6.59821 -0.9194,0 -1.90172,-0.87976 -2.18291,-1.95504 -0.5292,-2.02374 -2.42721,-2.81993 -1.99389,-0.83641 0.13444,0.61525 -1.21512,1.51533 -2.99896,2.00019 -3.4348,0.9336 -3.77176,2.99329 -0.58571,3.58033 5.50119,1.01362 6.95817,7.17145 2.85155,12.05191 -3.24391,3.85515 -3.08535,4.70933 0.87411,4.70933 2.3633,0 4.25421,0.87461 6.572,3.03975 l 3.25408,3.03974 -2.71852,2.33836 c -1.49517,1.2861 -2.4932,2.70297 -2.2178,3.14857 0.27541,0.44562 2.83019,1.33547 5.67732,1.9774 10.06784,2.27011 10.13705,3.99609 0.19219,4.79439 l -6.56013,0.5266 2.59531,1.89056 c 1.42745,1.03979 2.59534,2.73961 2.59534,3.77733 0,1.03771 0.52542,2.72807 1.16755,3.75632 0.82518,1.32127 0.89683,2.95635 0.2444,5.5754 -1.98927,7.98527 -10.58348,7.94562 -14.22203,-0.0657 -2.6537,-5.84276 -2.34079,-8.18093 1.59105,-11.88913 l 3.4437,-3.24782 -5.08741,-1.5108 c -6.49896,-1.92999 -9.5958,-1.90783 -12.44673,0.089 -2.02119,1.4157 -2.22781,2.17509 -1.79545,6.59824 0.55099,5.63678 -0.82675,9.23664 -4.44152,11.60514 -4.853338,3.18003 -10.648788,2.20449 -12.912752,-2.17351 -2.00347,-3.87428 -1.86781,-6.67872 0.540427,-11.17197 1.495405,-2.79009 1.738105,-4.06367 0.928641,-4.87312 -1.242121,-1.24211 -8.889757,-1.41543 -13.054661,-0.29584 l -2.770157,0.74469 2.635209,2.07284 c 2.34953,1.84814 2.580801,2.55555 2.133343,6.52547 -0.396335,3.51623 -1.238591,5.12774 -4.00514,7.66307 -3.605491,3.30423 -7.44378,4.13841 -9.149935,1.98862 -3.058393,-3.85359 -2.101963,-11.40036 2.040868,-16.1035 1.807037,-2.05143 1.817126,-2.21142 0.179053,-2.84001 -0.954712,-0.36636 -3.274298,-0.10962 -5.154628,0.57014 -2.821388,1.02023 -3.565904,1.00406 -4.260713,-0.0925 -0.495396,-0.78191 -0.848086,-0.87516 -0.856891,-0.22659 -0.02317,1.70433 2.726068,3.57926 4.340104,2.95991 1.686764,-0.64728 2.899665,0.83409 1.946148,2.37689 -0.472942,0.76525 -0.954222,0.76525 -1.719471,0 -1.547281,-1.54726 -3.066107,-1.30367 -1.751065,0.28087 1.273518,1.53448 0.593518,9.57658 -1.07857,12.75605 -1.53518,2.91916 -2.735728,3.44501 -5.481738,2.40095 -2.174578,-0.82676 -2.289259,-0.75714 -1.104457,0.67045 0.947888,1.14214 2.268385,1.43946 4.665471,1.05047 l 3.343401,-0.54257 -0.57439,3.53952 c -0.708514,4.36606 -2.137006,6.02893 -3.773421,4.39252 -1.578101,-1.57812 -3.250719,-1.50353 -1.931436,0.0861 1.254509,1.51161 0.727891,10.53824 -0.779068,13.35404 -1.311308,2.45018 -4.474917,2.61585 -5.769748,0.30212 -0.524026,-0.93641 -1.201161,-1.45415 -1.504747,-1.15054 -1.362313,1.36229 2.239694,4.1315 5.262236,4.04557 l 3.193246,-0.0907 -0.648527,4.05564 c -0.356684,2.2306 -0.796419,4.20354 -0.977171,4.38429 -0.764548,0.76456 -5.38177,-1.03612 -4.852538,-1.89245 0.319483,-0.51693 1.19621,-0.70376 1.948279,-0.41515 0.933599,0.35825 1.367358,-0.2076 1.367358,-1.78382 0,-1.26969 -0.659824,-2.56171 -1.466275,-2.8712 -1.023706,-0.39283 -1.466273,0.0729 -1.466273,1.54308 0,1.15815 -0.903377,3.06732 -2.007505,4.24262 l -2.007505,2.13688 2.381683,-0.45526 c 2.758619,-0.52735 4.24706,1.17858 2.677944,3.06926 -0.593298,0.71488 -1.241669,3.00498 -1.440824,5.08915 -0.50602,5.29546 -1.394255,7.03203 -3.840889,7.50914 -1.378261,0.26877 -0.970436,0.45923 1.168957,0.54593 3.252154,0.13176 3.278701,0.17053 2.598888,3.79879 -1.051876,5.614 -1.713181,6.39347 -3.973859,4.68399 -1.723109,-1.303 -1.742761,-1.44795 -0.200096,-1.47598 0.940861,-0.0171 1.710656,-0.435 1.710656,-0.92866 0,-0.49365 0.245221,-1.5366 0.544938,-2.31764 0.299714,-0.78105 -0.124915,-1.67715 -0.943632,-1.99132 -1.083491,-0.41576 -1.761014,0.41445 -2.489751,3.05082 -0.656578,2.37529 -0.668239,3.73414 -0.03391,3.94783 1.338085,0.45073 1.22255,4.07298 -0.129904,4.07298 -0.736678,0 -0.679007,0.5039 0.175517,1.53355 1.127393,1.3584 1.625629,1.1483 4.363162,-1.83985 3.676572,-4.0132 6.166015,-4.96829 9.573305,-3.67285 3.74255,1.42292 4.350997,6.27679 1.591047,12.69246 -2.766108,6.42998 -6.635332,8.86834 -10.281484,6.47927 -1.503886,-0.98536 -2.394401,-2.52606 -2.43801,-4.21804 -0.03781,-1.46612 -0.407399,-3.53219 -0.821353,-4.59133 -0.670501,-1.71549 -1.049439,-1.4772 -3.471892,2.18339 -1.495583,2.25999 -3.100968,3.87313 -3.567526,3.58479 -0.466559,-0.28837 0.04404,-1.48207 1.134632,-2.65269 2.587435,-2.7773 3.405945,-6.22662 1.906325,-8.03355 -0.96425,-1.16184 -0.8905,-1.55951 0.379602,-2.04693 1.99508,-0.76558 2.02133,-1.97086 0.05933,-2.72374 -0.991155,-0.38035 -1.274426,-0.1896 -0.817158,0.55029 0.467409,0.75628 0.159577,0.92509 -0.926748,0.50826 -1.542777,-0.59205 -1.757084,-0.27286 -2.028446,3.02104 -0.05723,0.69456 -0.584487,1.57432 -1.171706,1.95504 -1.248977,0.80975 -2.457076,6.2584 -1.217818,5.49251 0.808168,-0.49948 1.210114,0.85621 0.934816,3.15296 -0.07321,0.61088 0.549868,1.37277 1.38464,1.69309 1.371129,0.52617 1.370377,0.86747 -0.0077,3.53255 -1.335843,2.58328 -1.344369,2.9501 -0.06856,2.9501 1.78305,0 3.824682,-3.55899 3.110007,-5.42141 -0.286734,-0.74721 -0.100674,-1.61857 0.413487,-1.93633 1.379905,-0.85284 1.137049,4.76277 -0.287072,6.63801 -0.672042,0.88493 -2.414938,1.7588 -3.873104,1.94198 -1.458163,0.18315 -2.997751,0.70145 -3.421306,1.15174 -0.423554,0.45028 1.429312,0.51348 4.117482,0.14046 6.437788,-0.89337 6.703769,-0.88621 14.662746,0.39492 6.918202,1.11362 56.020062,2.16732 100.439772,2.1554 13.30646,-0.004 24.19355,0.37506 24.19355,0.84139 0,0.78987 -2.95841,1.50919 -8.79766,2.13912 -1.72807,0.18642 -2.53959,0.94081 -2.77093,2.57578 -0.47198,3.33581 0.76313,4.0771 7.0697,4.24302 l 5.61368,0.1477 -5.20059,1.85517 c -2.86035,1.02032 -5.75047,2.02768 -6.42251,2.23858 -0.67205,0.2109 -1.2219,1.53813 -1.2219,2.94944 0,1.73905 -0.62649,2.72982 -1.94403,3.07436 -1.06923,0.2796 -1.70309,0.89825 -1.4086,1.37477 0.72715,1.17654 2.12074,1.09126 2.90505,-0.17778 z M 120.93703,253.8532 c -4.70989,-1.72171 -8.79765,-8.10638 -8.79765,-13.74095 0,-3.88287 3.09172,-7.93708 7.14162,-9.36485 2.18768,-0.77123 8.44518,1.73451 8.64753,3.4628 0.0818,0.69949 0.19848,1.76203 0.25911,2.36119 0.0607,0.59916 0.67963,1.77549 1.37556,2.61406 1.60619,1.93533 0.6489,7.81806 -1.98224,12.18117 -1.83586,3.04436 -3.45768,3.65136 -6.64393,2.48658 z m 4.72474,-3.95284 c 3.27976,-2.79301 2.9155,-13.84244 -0.41424,-12.56473 -0.80013,0.30706 -1.37796,-0.0733 -1.37796,-0.9068 0,-0.7896 -0.70687,-1.43559 -1.57087,-1.43559 -0.99471,0 -1.36448,0.53777 -1.00819,1.46625 0.30947,0.80646 0.10415,1.46627 -0.45583,1.46627 -0.56019,0 -0.86422,-0.76978 -0.67562,-1.71062 0.22599,-1.12742 1.23162,-1.69898 2.94955,-1.67639 2.01426,0.0264 2.36974,-0.25118 1.56413,-1.22187 -1.92441,-2.31878 -6.31776,-1.46623 -9.02516,1.75136 -2.99964,3.56481 -3.08692,4.95928 -0.64698,10.33279 2.76604,6.09165 6.79477,7.79189 10.66117,4.49933 z m -46.269176,1.73997 c -3.346744,-1.32854 -5.588922,-4.66706 -6.065794,-9.03168 -0.843042,-7.71592 3.224786,-12.894 10.129309,-12.894 4.909535,0 8.300473,3.80125 8.893139,9.9693 0.430861,4.48403 0.209904,5.13384 -2.8233,8.30276 -3.51123,3.66835 -6.96202,4.91254 -10.133354,3.65362 z m 9.530783,-4.96723 c 3.164063,-3.42877 3.398727,-5.74941 0.805864,-7.9695 -1.11133,-0.9515 -1.684065,-2.36972 -1.398317,-3.46244 1.067477,-4.08201 -5.319772,-5.79308 -10.051567,-2.69268 -2.282442,1.49549 -2.406763,1.82304 -0.992423,2.61454 0.889296,0.49768 1.616901,1.32289 1.616901,1.83382 0,1.37413 -2.69701,1.12835 -3.214602,-0.29296 -0.244742,-0.67205 -0.760206,0.37422 -1.145493,2.32504 -0.495493,2.5089 -0.231097,4.45468 0.903457,6.64866 2.937019,5.67956 8.757034,6.1095 13.47618,0.99552 z m -7.410064,-11.11181 c -0.312982,-0.81563 -0.137502,-1.7497 0.38998,-2.07567 0.52748,-0.32602 0.838171,-0.0651 0.690451,0.57962 -0.147733,0.64479 0.351346,1.39734 1.109059,1.67232 0.954887,0.34654 1.189286,0.0103 0.763812,-1.09971 -0.337614,-0.87982 -0.155513,-1.59967 0.404673,-1.59967 1.628912,0 0.52608,3.36766 -1.212481,3.70246 -0.867039,0.16698 -1.832504,-0.36374 -2.145494,-1.17935 z M 65.420459,249.938 c -1.539285,-0.29467 -2.095617,-0.94227 -1.775071,-2.06628 0.256774,-0.9004 0.587284,-6.91567 0.734459,-13.3673 0.189344,-8.29985 0.669049,-12.21694 1.640368,-13.39463 2.090792,-2.53501 4.14644,-13.95146 3.662237,-20.339 -0.307164,-4.05195 -0.07088,-5.83191 0.819609,-6.17363 2.035969,-0.78127 4.453827,-6.9183 4.637368,-11.7706 0.177712,-4.6983 -1.935738,-8.4394 -4.767661,-8.4394 -2.684545,0 -0.702481,-3.41177 3.248101,-5.59104 2.421103,-1.33556 4.714727,-3.63855 5.854226,-5.87818 1.746472,-3.43256 3.148884,-5.09968 4.31732,-5.13222 0.399131,-0.0111 1.901837,4.27461 4.64287,13.24143 0.174645,0.57135 -1.034045,2.45313 -2.68598,4.18171 -5.255038,5.4989 -6.358315,11.90889 -2.998198,17.41946 2.201229,3.61003 4.815706,4.66814 9.406406,3.80691 7.794262,-1.4622 12.249217,-9.01142 9.655717,-16.3622 -2.082921,-5.90365 -1.75151,-8.01634 1.95313,-12.45049 1.87657,-2.24612 4.07202,-6.48861 4.97997,-9.62329 1.86254,-6.43042 2.9387,-8.04999 5.34907,-8.04999 3.45599,0 4.04037,2.37608 1.44844,5.88928 -1.33429,1.80849 -2.42348,3.75258 -2.4205,4.32017 0.015,2.83931 2.19396,8.36335 3.29892,8.36335 0.69161,0 2.98033,1.52128 5.08603,3.38062 l 3.82856,3.38063 -2.93256,0.0825 c -4.2629,0.11971 -11.13595,6.43858 -12.21701,11.2319 -1.07421,4.76289 0.69138,7.34653 7.08506,10.36767 4.84556,2.28965 5.95729,3.81485 2.78066,3.81485 -2.9027,0 -10.17014,6.6087 -12.08801,10.9923 -0.95237,2.17681 -1.66494,5.32281 -1.58346,6.99109 0.0815,1.66828 -0.17609,3.80303 -0.57238,4.74388 -0.5438,1.29105 -0.25251,1.71067 1.18756,1.71067 1.04946,0 2.6472,0.81667 3.55055,1.81485 1.46619,1.62014 1.48245,1.94765 0.1515,3.05225 -1.01914,0.84576 -1.49094,0.89012 -1.49094,0.14004 0,-0.60346 -0.83365,-1.0972 -1.85257,-1.0972 -1.24518,0 -2.72527,1.68259 -4.51433,5.13195 -1.46397,2.8226 -2.79153,5.2771 -2.950173,5.45447 -0.808802,0.90427 -5.326501,-3.26001 -6.17394,-5.69095 -2.944426,-8.44638 -17.647544,-8.09035 -21.242839,0.5144 -0.764093,1.82876 -1.389266,6.19834 -1.389266,9.71023 0,6.84249 0.0573,6.78496 -5.663243,5.68984 z m 27.883765,-27.3101 c 2.275052,-1.29735 4.584438,-3.19587 5.131965,-4.21894 3.040351,-5.68097 -0.996843,-15.31181 -7.338982,-17.50731 -3.388432,-1.173 -4.357749,-1.14601 -7.590531,0.21135 -2.881975,1.21008 -4.163721,2.59073 -5.764307,6.20913 -1.813665,4.10006 -1.922846,5.17849 -0.918817,9.07502 0.729178,2.82985 2.252314,5.38066 4.23031,7.08448 3.543321,3.05219 5.659487,2.90472 12.250362,-0.85373 z M 80.783676,219.428 c -6.461052,-6.46106 -1.535982,-17.74802 7.696934,-17.63939 3.292041,0.0386 6.343125,2.26234 6.526897,4.75679 0.07663,1.04041 0.712679,2.58244 1.413401,3.42678 3.190027,3.84372 -3.266537,12.31318 -9.386759,12.31318 -2.446937,0 -4.189908,-0.79678 -6.250473,-2.85736 z m 12.538525,-1.29556 c 2.557114,-2.38684 2.85818,-5.81366 0.670292,-7.62943 -0.958954,-0.79587 -1.320156,-2.1016 -0.9687,-3.50189 0.631818,-2.51738 -1.647259,-4.26609 -5.559975,-4.26609 -2.854455,0 -6.710328,2.80796 -4.894299,3.56417 2.190772,0.91226 1.397067,3.42569 -0.977514,3.09553 -4.766225,-0.66276 -2.594319,8.84488 2.500777,10.94728 2.86181,1.18084 6.540721,0.3001 9.229419,-2.20957 z m -6.498989,-10.879 c -0.818565,-0.98631 -0.855483,-1.60724 -0.122501,-2.06024 0.577057,-0.35664 0.928326,-0.12084 0.780607,0.52393 -0.147735,0.64479 0.351348,1.39732 1.109058,1.6723 0.954888,0.34653 1.189286,0.0102 0.763813,-1.09971 -0.337614,-0.87981 -0.155513,-1.59965 0.404674,-1.59965 1.319351,0 0.719871,3.14827 -0.688779,3.61725 -0.591358,0.19686 -1.602453,-0.27737 -2.24688,-1.05388 z m 32.885048,15.92729 c -2.10804,-1.22762 -5.61386,-7.89732 -5.61386,-10.68014 0,-6.53699 6.33101,-10.82243 12.30243,-8.32739 2.74429,1.14662 3.33785,1.9147 3.33785,4.31938 0,1.6086 0.47092,3.21577 1.04649,3.57149 1.41631,0.87533 0.14994,8.26629 -1.79318,10.46569 -1.6625,1.88171 -6.57464,2.2263 -9.27973,0.65097 z m 7.88956,-1.73981 c 2.6904,-1.70611 1.8965,-14.08146 -1.0222,-15.93402 -2.24683,-1.4261 -6.58262,-0.85033 -8.57116,1.13821 -3.27144,3.27146 -1.80106,13.38471 2.17884,14.98601 1.98555,0.79888 6.01789,0.69543 7.41452,-0.1902 z m -4.99783,-11.50365 c -1.53927,-1.53931 -0.62565,-3.41964 1.51396,-3.11578 1.20967,0.17179 2.19941,0.96618 2.19941,1.76523 0,1.55306 -2.57451,2.48938 -3.71337,1.35055 z m 3.2246,-1.33713 c 0,-0.53764 -0.65982,-0.97752 -1.46627,-0.97752 -0.80644,0 -1.46627,0.43988 -1.46627,0.97752 0,0.53762 0.65983,0.97752 1.46627,0.97752 0.80645,0 1.46627,-0.4399 1.46627,-0.97752 z m -72.446174,9.04202 c -2.334369,-6.03894 -2.21725,-8.85824 0.516889,-12.44291 2.99039,-3.92059 5.852091,-4.96439 9.650797,-3.52014 2.350497,0.89365 2.650017,1.51473 2.650017,5.49482 0,2.46798 -0.494848,5.44811 -1.099667,6.62242 -3.516117,6.827 -9.771996,8.88014 -11.718036,3.84581 z m 8.806376,-1.74467 c 2.429903,-2.76751 3.033812,-4.32899 3.033812,-7.84431 0,-3.78401 -0.337391,-4.51729 -2.447662,-5.31963 -3.707134,-1.40943 -7.620503,0.65606 -6.874491,3.6284 0.394925,1.57348 0.08445,2.46841 -1.00094,2.8849 -1.228347,0.47138 -1.428837,1.37787 -0.914055,4.13299 1.287487,6.89063 3.7108,7.63436 8.203336,2.51765 z m -2.676095,-8.57663 c -1.328613,-1.6009 -0.532161,-2.63079 2.034436,-2.63079 1.214455,0 1.753673,0.56775 1.547728,1.62967 -0.420739,2.16942 -2.199886,2.66667 -3.582164,1.00112 z m 2.777357,-0.67575 c 0,-0.53764 -0.685785,-0.97753 -1.523966,-0.97753 -0.838182,0 -1.252101,0.43989 -0.919823,0.97753 0.332278,0.53763 1.018063,0.97751 1.523966,0.97751 0.505902,0 0.919823,-0.43988 0.919823,-0.97751 z m 58.439316,-11.48582 c -4.23362,-4.85354 -5.07829,-12.54974 -1.74339,-15.88465 4.13753,-4.13752 12.70773,-1.65236 12.70773,3.68496 0,1.13563 0.46563,2.35254 1.03475,2.70425 1.25415,0.77514 0.3176,5.91233 -1.64199,9.00666 -1.76558,2.78794 -8.09121,3.08646 -10.3571,0.48878 z m 7.85935,-0.11719 c 2.34043,-1.48388 3.24342,-8.35482 1.61135,-12.2609 -1.36363,-3.26365 -2.99225,-5.16706 -1.83035,-2.13923 0.28859,0.75209 0.044,1.66454 -0.54364,2.0277 -0.58764,0.36317 -0.94755,0.13274 -0.7998,-0.51208 0.14772,-0.64479 -0.35136,-1.39733 -1.10907,-1.6723 -0.95488,-0.34653 -1.18927,-0.0102 -0.76381,1.0997 0.33763,0.8798 0.18776,1.59966 -0.33298,1.59966 -1.6012,0 -1.04771,-2.77664 0.76382,-3.83175 1.46247,-0.85184 1.32063,-1.00069 -0.97754,-1.02612 -1.47848,-0.0164 -3.61936,0.90148 -4.75746,2.03956 -1.70036,1.70039 -1.97892,2.87098 -1.56243,6.56601 0.73437,6.51536 6.12436,10.7584 10.30191,8.10975 z m -42.763268,-2.65793 c -2.539928,-2.13723 -3.007553,-3.21631 -3.007553,-6.94037 0,-3.71157 0.526158,-4.93584 3.323556,-7.73325 2.257662,-2.25765 4.236283,-3.32355 6.169536,-3.32355 3.070261,0 7.124687,3.08874 7.124687,5.42767 0,0.79282 0.532335,2.29385 1.182942,3.33568 1.70879,2.7362 -0.0232,6.83569 -4.028572,9.53485 -4.293182,2.89316 -7.060473,2.81576 -10.764596,-0.30103 z m 10.145125,-0.0315 c 0.870308,-0.33397 2.257911,-1.91354 3.083571,-3.51017 1.354622,-2.61955 1.351082,-3.06885 -0.0362,-4.60174 -0.845537,-0.9343 -1.537345,-2.80317 -1.537345,-4.15304 0,-3.39733 -4.098927,-5.28699 -7.980566,-3.67916 -2.669724,1.10585 -3.889988,3.84362 -1.713146,3.84362 0.582444,0 0.874487,0.54985 0.648993,1.22188 -0.225505,0.67206 -1.251896,1.22191 -2.280878,1.22191 -2.870068,0 -3.064632,4.98867 -0.308964,7.92194 2.186088,2.32699 6.60713,3.0845 10.124489,1.73476 z M 91.088693,180.197 c -0.75999,-1.22968 1.362901,-3.04415 2.966645,-2.53563 0.537633,0.17046 0.977515,0.92706 0.977515,1.68137 0,1.72963 -3.001395,2.37969 -3.94416,0.85426 z m 2.956791,-0.93827 c -0.337692,-0.54642 -1.02348,-0.7404 -1.523969,-0.43107 -1.355852,0.83796 -1.103036,1.42452 0.614,1.42452 0.838181,0 1.247661,-0.44705 0.909969,-0.99345 z M 60.62679,192.71562 c -0.506621,-0.67202 -1.480077,-2.99874 -2.163234,-5.17041 -1.127019,-3.58272 -1.043451,-4.28526 0.901875,-7.58236 3.277614,-5.55514 10.581049,-6.20854 12.884626,-1.15272 3.031392,6.65317 -7.548608,19.31061 -11.623267,13.90549 z m 6.406592,-2.23137 c 5.721912,-4.81469 6.102596,-12.36681 0.691847,-13.72482 -3.211327,-0.806 -6.663826,1.17428 -5.952841,3.41439 0.314126,0.98976 -0.102008,2.3051 -0.952607,3.01103 -1.481778,1.22978 -1.402797,2.23519 0.595092,7.57575 1.052746,2.81412 2.001133,2.76745 5.618509,-0.27635 z m -1.142736,-8.90822 c -1.383693,-1.38369 -0.600713,-3.27876 1.354663,-3.27876 1.366537,0 1.92376,0.53085 1.710654,1.62965 -0.348915,1.7991 -2.017596,2.69683 -3.065317,1.64911 z m 2.260508,-1.87017 c 0,-0.2371 -0.439883,-0.43108 -0.977517,-0.43108 -0.537636,0 -0.977518,0.46587 -0.977518,1.03521 0,0.56939 0.439882,0.76335 0.977518,0.43106 0.537634,-0.33227 0.977517,-0.7981 0.977517,-1.03519 z m 79.178826,-29.75657 -2.44383,-0.78264 2.44383,-0.0287 c 1.34405,-0.0157 3.32354,0.34931 4.39881,0.81137 1.95502,0.84012 1.95502,0.84012 0,0.81137 -1.07527,-0.0157 -3.05476,-0.38091 -4.39881,-0.81137 z m -0.2444,-2.60242 c 0.67204,-0.27114 1.77174,-0.27114 2.44379,0 0.67204,0.27117 0.12224,0.49307 -1.2219,0.49307 -1.34408,0 -1.89392,-0.2219 -1.22189,-0.49307 z m -4.18489,-1.25839 c 0.56915,-0.92086 0.20289,-1.05812 -1.43583,-0.538 -1.6483,0.52316 -2.00642,0.3852 -1.42833,-0.55016 0.54967,-0.88935 0.30044,-1.06757 -0.86668,-0.61973 -1.77324,0.68045 -6.50264,-1.07078 -6.50264,-2.40781 0,-0.45106 1.1723,-2.91978 2.60508,-5.48604 2.38861,-4.27816 2.91002,-4.66592 6.27427,-4.66592 2.01802,0 3.45906,0.33992 3.2023,0.75533 -0.25675,0.41545 -0.0269,0.75536 0.51071,0.75536 1.64098,0 2.14821,-1.71601 0.67437,-2.28156 -0.84998,-0.32617 -1.17974,-1.3154 -0.85388,-2.56145 0.87422,-3.34313 2.20501,-3.30833 3.63602,0.095 1.19354,2.83859 1.16314,3.36478 -0.26258,4.54755 -1.40285,1.1638 -1.41123,1.27578 -0.0647,0.86217 1.71325,-0.52619 1.75736,-0.39006 2.24088,6.91403 0.30946,4.67468 0.15578,5.13313 -1.72443,5.14528 -1.1353,0.007 -3.12271,0.2966 -4.41645,0.64275 -1.74995,0.46824 -2.15664,0.31284 -1.58823,-0.60683 z m -4.36837,-6.32315 c 0,-2.37539 0.28468,-5.12465 0.63261,-6.10949 0.47154,-1.33464 0.34047,-1.52263 -0.51473,-0.73821 -1.612,1.47852 -2.6805,11.16657 -1.23157,11.16657 0.66519,0 1.11369,-1.73928 1.11369,-4.31887 z m 23.46038,-4.96755 c -1.26271,-1.34406 -1.82984,-2.44378 -1.26032,-2.44378 0.5695,0 1.75602,1.09972 2.63671,2.44378 0.8807,1.34409 1.44781,2.4438 1.26034,2.4438 -0.18748,0 -1.37402,-1.09971 -2.63673,-2.4438 z m -5.86509,-3.0185 c -1.34409,-0.7483 -2.99365,-1.15884 -3.66568,-0.91232 -0.72314,0.26523 -1.22191,-0.36087 -1.22191,-1.53387 0,-1.09011 -0.43988,-1.7102 -0.9775,-1.37791 -0.53765,0.33227 -0.97754,0.16058 -0.97754,-0.38151 0,-0.54214 -1.36402,-2.26049 -3.0312,-3.8186 -2.9539,-2.76065 -3.0558,-3.15046 -3.99404,-15.28 -0.52952,-6.84589 -0.76379,-12.646077 -0.52057,-12.889291 0.24321,-0.243214 2.34358,-0.138174 4.6675,0.233441 3.59295,0.574536 3.90489,0.794167 2.08443,1.467599 -1.17746,0.43557 -2.87109,0.511721 -3.76363,0.169219 -1.46264,-0.561269 -1.5596,0.189461 -0.98229,7.606852 0.35227,4.52625 0.64316,9.65918 0.64638,11.40648 0.003,1.8037 0.80324,3.97432 1.85058,5.02165 1.01462,1.01459 2.35837,2.66417 2.98618,3.66567 1.15788,1.84721 0.97965,-4.75387 -0.56453,-20.90625 -0.47318,-4.94952 -0.31542,-6.10948 0.8309,-6.10948 0.77823,0 1.89689,0.98974 2.48594,2.19941 0.89044,1.82872 2.31264,16.7644 2.60628,27.37043 0.0411,1.4785 0.46413,2.68817 0.94042,2.68817 0.4763,0 0.5828,-2.06624 0.23665,-4.59166 -0.34613,-2.52541 -0.90574,-9.01369 -1.24356,-14.41835 -0.33783,-5.40467 -0.99802,-10.31628 -1.4671,-10.91467 -0.58743,-0.74935 -0.16564,-0.95462 1.35509,-0.65952 2.10231,0.40796 2.22346,0.92766 2.5317,10.86314 0.17807,5.73905 0.64929,13.18391 1.04716,16.54412 0.39787,3.36022 0.69205,6.06637 0.65376,6.01365 -0.0384,-0.0527 -1.16934,-0.70808 -2.51342,-1.4564 z m -20.51709,-3.57971 c 0.0207,-4.26256 1.22632,-9.48576 2.06904,-8.96493 0.46901,0.28986 0.85276,2.00922 0.85276,3.82083 0,1.81157 0.63887,3.93265 1.41973,4.71351 1.71562,1.71561 0.99544,2.62999 -2.07142,2.62999 -1.71685,0 -2.27821,-0.54387 -2.27011,-2.1994 z m -6.22934,-21.74972 c -0.30948,-0.80645 -1.23629,-1.46627 -2.05963,-1.46627 -0.82332,0 -1.49696,-0.43989 -1.49696,-0.97752 0,-0.53764 0.87978,-0.97752 1.95504,-0.97752 1.30336,0 1.95505,-0.65168 1.95505,-1.95503 0,-1.30336 -0.65169,-1.95504 -1.95505,-1.95504 -2.461,0 -2.6585,-3.41923 -0.27456,-4.753348 1.15765,-0.647851 2.52617,-0.503096 4.39882,0.465289 2.5126,1.299321 2.71838,1.847761 2.71838,7.245719 0,5.50801 -0.13304,5.83998 -2.33922,5.83998 -1.28657,0 -2.59241,-0.65982 -2.90187,-1.46626 z M 70.370477,94.661426 c 0.414183,-0.437971 1.513889,-0.91911 2.443791,-1.069198 0.92991,-0.150084 3.890153,-0.76779 6.578326,-1.372677 2.688167,-0.60489 7.526873,-1.237177 10.752678,-1.405088 l 5.865097,-0.305296 -5.376339,0.814447 c -2.956987,0.447943 -7.575752,1.304996 -10.263924,1.904565 -8.769923,1.956034 -10.76435,2.241894 -9.999629,1.433247 z M 39.803175,278.00375 c 0,-0.53761 -0.989735,-0.97077 -2.199411,-0.96255 -1.77853,0.0126 -1.918824,0.19633 -0.733136,0.96255 1.895169,1.22475 2.932547,1.22475 2.932547,0 z m -6.535116,-1.76496 c -0.647304,-0.40009 -1.311481,-4.91657 -1.609369,-10.94393 -0.278964,-5.64448 -0.869961,-10.26275 -1.313325,-10.26275 -1.065101,0 -1.619693,5.10063 -0.779548,7.16959 1.169887,2.88098 1.40589,9.84248 0.35568,10.49155 -0.626355,0.38712 -0.173406,1.52824 1.177292,2.96599 1.207425,1.28526 2.437445,2.09468 2.733375,1.79876 0.29593,-0.29593 0.0421,-0.84458 -0.564105,-1.21921 z M 155.42767,246.73266 c 1.6588,-2.97839 1.74614,-3.84782 0.68715,-6.84262 -1.65395,-4.6776 -2.76415,-5.87452 -5.44884,-5.87452 -3.1469,0 -4.62754,3.23098 -4.08205,8.90775 0.79846,8.30989 5.2655,10.23402 8.84374,3.80939 z m -5.491,-7.50372 c -1.29727,-1.29727 -0.61087,-3.25837 1.14045,-3.25837 2.48305,0 3.28119,1.04216 1.98976,2.59822 -1.20284,1.44933 -2.1428,1.64758 -3.13021,0.66015 z m 2.28086,-1.30335 c 0,-0.53763 -0.43988,-0.97751 -0.97751,-0.97751 -0.53763,0 -0.9775,0.43988 -0.9775,0.97751 0,0.53765 0.43987,0.97752 0.9775,0.97752 0.53763,0 0.97751,-0.43987 0.97751,-0.97752 z m 25.3445,9.15457 c 1.11427,-1.41656 2.03271,-3.28609 2.04092,-4.15444 0.0126,-1.36536 0.13934,-1.38226 0.93427,-0.12491 0.72149,1.14114 0.88363,0.98088 0.75363,-0.74495 -0.0911,-1.20942 -0.62148,-2.04501 -1.17862,-1.85691 -0.55714,0.18809 -1.4907,-0.30628 -2.07459,-1.09859 -0.91212,-1.2378 -1.41786,-1.13086 -3.59196,0.7595 -1.39169,1.21006 -2.38033,2.69949 -2.19697,3.30985 0.18337,0.61033 0.59845,2.31937 0.92241,3.79786 0.73713,3.36413 1.81156,3.39166 4.39091,0.11257 z m 1.40198,1.10934 c 0.30943,-0.80645 0.41036,-1.46627 0.22424,-1.46627 -0.18611,0 -0.88598,0.65982 -1.55528,1.46627 -0.70141,0.84517 -0.79642,1.46631 -0.22428,1.46631 0.54593,0 1.24582,-0.65983 1.55532,-1.46631 z M 52.961337,247.09144 c 2.155896,-0.8273 5.414651,-7.44875 5.414651,-11.002 0,-4.34547 -0.943538,-5.98398 -3.445942,-5.98398 -3.903576,0 -5.351704,1.05803 -5.351704,3.91006 0,1.55639 -0.648321,2.97218 -1.512964,3.30396 -1.1707,0.44926 -1.362999,1.41274 -0.850058,4.25902 0.996325,5.5286 2.341622,6.81933 5.746017,5.51294 z m 0.201234,-11.77256 c -1.345619,-1.34561 -0.580507,-3.2584 1.303353,-3.2584 1.303352,0 1.955031,0.6517 1.955031,1.95504 0,1.88386 -1.912776,2.64897 -3.258384,1.30336 z m 2.280867,-1.30336 c 0,-0.53763 -0.439883,-0.97751 -0.977514,-0.97751 -0.537636,0 -0.977518,0.43988 -0.977518,0.97751 0,0.53764 0.439882,0.97751 0.977518,0.97751 0.537631,0 0.977514,-0.43987 0.977514,-0.97751 z m -21.835485,2.68817 c -0.271176,-0.67206 -0.493046,-0.12225 -0.493046,1.2219 0,1.3441 0.22187,1.89395 0.493046,1.2219 0.271173,-0.67203 0.271173,-1.77176 0,-2.4438 z m 145.531477,0.30941 c -0.35439,-0.5734 -1.11211,-1.04253 -1.68385,-1.04253 -0.64819,0 -0.57402,0.56088 0.19699,1.48988 1.34069,1.61546 2.53894,1.25494 1.48686,-0.44735 z M 36.870628,231.51403 c 0,-0.23706 -0.439883,-0.43105 -0.977516,-0.43105 -0.537636,0 -0.977516,0.46583 -0.977516,1.0352 0,0.56937 0.43988,0.76334 0.977516,0.43109 0.537633,-0.3323 0.977516,-0.79815 0.977516,-1.03524 z m 133.919722,-0.37335 c 0,-0.5059 -0.43988,-1.19171 -0.97751,-1.52398 -0.53765,-0.33227 -0.97752,0.0815 -0.97752,0.91982 0,0.83818 0.43987,1.52396 0.97752,1.52396 0.53763,0 0.97751,-0.4139 0.97751,-0.9198 z m 2.73168,-2.74588 c -0.18936,-0.94085 0.65815,-2.51236 1.88334,-3.49227 1.22518,-0.97986 2.2276,-2.27183 2.2276,-2.87102 0,-0.59919 -1.35233,0.20251 -3.00517,1.7816 -2.92259,2.79218 -3.04344,2.81894 -4.39882,0.97356 -0.76652,-1.04365 -1.39366,-2.32998 -1.39366,-2.85855 0,-0.52862 -1.11947,0.0907 -2.48773,1.37599 -3.03262,2.84903 -5.33036,1.86193 -6.54096,-2.80995 -1.03048,-3.97678 -2.03136,-3.90495 -4.52702,0.32489 -4.07843,6.91243 -10.39346,2.87698 -10.39346,-6.64161 0,-3.81616 0.45566,-5.14152 2.27373,-6.61373 2.00236,-1.62137 2.64405,-1.69076 5.37635,-0.58139 2.20044,0.8934 3.19056,2.00159 3.40503,3.81101 0.16632,1.4032 0.91429,3.0591 1.66213,3.67975 1.09954,0.91254 1.52111,0.50565 2.20313,-2.12639 0.4895,-1.88905 1.56587,-3.39396 2.56504,-3.5864 2.19751,-0.42321 5.48624,2.51988 5.48624,4.90958 0,2.20509 2.63651,3.43741 4.13922,1.9347 0.78202,-0.78203 0.63082,-1.24586 -0.55446,-1.70067 -2.31266,-0.88744 -2.02968,-2.70387 0.32532,-2.08803 2.0222,0.52883 2.70027,-0.68477 0.9775,-1.74949 -0.53762,-0.33229 -0.9775,-1.43199 -0.9775,-2.44379 0,-1.01184 -0.37634,-2.07224 -0.83632,-2.35654 -0.45997,-0.28428 -0.63849,0.51799 -0.3967,1.78279 0.58089,3.0387 -1.1707,3.98757 -3.87035,2.09665 -2.76024,-1.93334 -6.51942,-1.96271 -7.25086,-0.0566 -0.73733,1.92145 -2.30853,1.88752 -2.30853,-0.05 0,-1.38772 -5.33368,-4.34891 -7.83318,-4.34891 -0.57933,0 -2.13302,1.07968 -3.45267,2.39935 -4.90295,4.90291 -2.34332,16.08528 4.49084,19.61936 1.68666,0.87221 3.19047,1.44339 3.34186,1.26937 0.15137,-0.17407 1.15417,-2.05254 2.22844,-4.17441 l 1.95319,-3.85793 1.61591,3.12479 c 1.72204,3.33013 4.99335,4.1833 7.29616,1.90292 0.98829,-0.9787 1.42602,-0.8814 2.1991,0.48876 0.53089,0.94086 1.60319,1.71065 2.38292,1.71065 0.77973,0 1.41769,0.65983 1.41769,1.46627 0,0.80645 0.2522,1.46627 0.56043,1.46627 0.30826,0 0.40555,-0.76979 0.21622,-1.71064 z m 3.13341,-9.64957 c 0,-0.81179 -0.45005,-2.31696 -1.00011,-3.34477 -0.83974,-1.56905 -0.72216,-1.77084 0.73312,-1.25817 1.43429,0.50532 1.51754,0.37854 0.48258,-0.73505 -1.04877,-1.1284 -1.63496,-0.87543 -3.63052,1.56677 -2.29574,2.80953 -3.24899,8.14168 -1.72756,9.6631 0.91732,0.91732 5.14249,-3.92358 5.14249,-5.89188 z m -10.72352,2.52168 c 2.44046,-3.42738 2.01038,-8.39592 -0.63878,-7.37934 -0.82793,0.3177 -2.34909,0.57763 -3.3804,0.57763 -2.14029,0 -2.27423,0.96718 -0.84616,6.10947 1.23367,4.44224 2.10665,4.56644 4.86534,0.69224 z m -11.41496,-1.85305 c 1.25633,-2.8475 1.48007,-4.69154 0.85988,-7.087 -0.95975,-3.7071 -4.54823,-6.05354 -7.13809,-4.66749 -3.30484,1.76867 -3.16011,10.24669 0.24496,14.34956 1.95073,2.35048 4.29647,1.34152 6.03325,-2.59507 z m -5.06298,-8.52557 c 0.19061,-0.9897 1.00034,-1.79945 1.79944,-1.79945 2.0953,0 1.79267,2.84036 -0.34653,3.25232 -1.30638,0.2516 -1.70448,-0.14652 -1.45291,-1.45287 z m 2.76355,-0.33316 c 0,-0.53764 -0.43988,-0.97751 -0.97751,-0.97751 -0.53763,0 -0.9775,0.43987 -0.9775,0.97751 0,0.53764 0.43987,0.97752 0.9775,0.97752 0.53763,0 0.97751,-0.43988 0.97751,-0.97752 z m 26.00603,7.10735 c -0.32484,-0.32481 -0.55586,0.25254 -0.51342,1.28302 0.047,1.13874 0.27853,1.37035 0.59059,0.59058 0.28237,-0.70568 0.24764,-1.54877 -0.0771,-1.8736 z M 46.851283,213.5028 c 0.394414,-2.31041 0.471659,-4.59788 0.17166,-5.08328 -0.300004,-0.48542 -0.03272,-1.50039 0.593967,-2.2555 0.948324,-1.14267 0.522933,-1.33346 -2.536324,-1.13778 -2.187979,0.14003 -3.866402,0.81191 -4.146786,1.66012 -0.402457,1.21751 -0.23441,1.22966 1.154203,0.0834 1.42751,-1.17836 1.62524,-1.08542 1.62524,0.76384 0,1.15798 -0.659826,2.35861 -1.466275,2.66805 -0.806452,0.30948 -1.466274,1.2014 -1.466274,1.98205 0,0.82397 -0.473411,1.1268 -1.128552,0.7219 -0.704827,-0.43562 -0.862976,-0.26778 -0.421214,0.44701 0.389038,0.62946 1.028783,0.94583 1.421658,0.70302 0.392877,-0.2428 1.312914,0.51979 2.044531,1.69473 1.213403,1.94858 1.187667,2.01834 -0.293107,0.79458 -0.913897,-0.75529 -1.623316,-0.89768 -1.623316,-0.32584 0,0.55867 0.54985,1.20856 1.221894,1.44417 2.875889,1.00836 4.153447,-0.0879 4.848695,-4.16046 z m 117.096457,-0.99263 c 0,-0.53765 -0.43986,-0.97752 -0.97751,-0.97752 -0.53763,0 -0.97753,0.43987 -0.97753,0.97752 0,0.53762 0.4399,0.97752 0.97753,0.97752 0.53765,0 0.97751,-0.4399 0.97751,-0.97752 z m 4.88758,-6.35386 c 0,-0.80645 -0.65983,-1.46629 -1.46626,-1.46629 -1.52647,0 -1.93939,1.15612 -0.8146,2.28088 1.12475,1.12476 2.28086,0.71185 2.28086,-0.81459 z m -7.82012,-1.40859 c 0,-0.50589 -0.43989,-1.19169 -0.97753,-1.52396 -0.53763,-0.33228 -0.97751,0.0815 -0.97751,0.91983 0,0.83817 0.43988,1.52397 0.97751,1.52397 0.53764,0 0.97753,-0.41394 0.97753,-0.91984 z m 10.48919,-1.62451 c -0.32408,-0.3241 0.59233,-1.62985 2.0365,-2.90164 1.44419,-1.2718 2.14413,-2.32628 1.5554,-2.34327 -0.58872,-0.017 -1.86655,0.84888 -2.83966,1.92415 -1.7415,1.92433 -4.38453,2.65601 -4.4138,1.2219 -0.007,-0.40324 -0.38918,-1.32355 -0.8465,-2.04513 -0.68155,-1.07529 -1.19357,-1.08592 -2.83822,-0.0588 -1.63719,1.02244 -2.29124,1.01701 -3.55232,-0.0298 -0.85009,-0.70549 -1.54563,-2.08269 -1.54563,-3.06039 0,-3.12559 -1.92655,-3.1078 -4.87168,0.0451 -2.418,2.58847 -3.17123,2.89914 -4.85041,2.00046 -4.75966,-2.54724 -6.57581,-12.07843 -2.98562,-15.66859 2.27619,-2.27621 2.93363,-2.35803 6.36927,-0.79265 1.57922,0.71955 2.7621,2.21699 3.1048,3.9304 0.59962,2.99805 2.25612,4.73529 2.25612,2.36609 0,-2.55936 2.84653,-4.64115 4.86732,-3.55968 2.60845,1.39603 1.4413,4.71338 -1.78992,5.0875 -1.73272,0.20059 -2.46521,0.78453 -2.21531,1.76596 0.20529,0.80647 0.66268,2.78327 1.01635,4.39293 0.90168,4.10353 3.17124,4.1158 5.3721,0.029 1.55541,-2.88824 1.66758,-3.86876 0.68854,-6.01759 -0.64332,-1.41189 -0.93523,-2.80154 -0.64871,-3.08806 0.28652,-0.28652 1.00583,0.87006 1.5985,2.57012 1.26006,3.61457 2.84133,4.07711 2.84133,0.83111 0,-3.62327 -6.63575,-7.84983 -10.26394,-6.53751 -1.36176,0.49253 -2.79352,0.005 -4.71819,-1.60157 -4.79963,-4.01018 -9.72305,-2.59313 -11.34028,3.26399 -1.64541,5.95913 0.77418,11.87029 5.95557,14.54966 2.66205,1.37662 2.92592,1.31717 5.24087,-1.18069 1.34071,-1.44664 2.56643,-2.45137 2.72382,-2.23268 0.15736,0.21865 1.06832,1.64602 2.02431,3.17189 1.35048,2.15556 2.24338,2.64751 4.00345,2.20576 1.24594,-0.31269 3.51976,0.0857 5.05299,0.88536 2.96216,1.54489 3.9763,1.83997 3.01295,0.87665 z m 0.6417,-4.75554 c 0.88919,-1.35704 1.47286,-3.94376 1.33431,-5.91335 l -0.24626,-3.5011 -2.115,2.64665 c -1.16325,1.45563 -2.33246,3.78426 -2.59826,5.17465 -0.86854,4.54342 1.11965,5.41714 3.62521,1.59315 z m -18.06914,-4.57618 c 1.61396,-4.6298 1.29828,-8.42664 -0.88191,-10.60682 -2.53788,-2.53789 -4.41383,-2.47311 -6.2984,0.21751 -1.89837,2.71027 -1.92972,5.71139 -0.10541,10.0778 1.93003,4.61926 5.72733,4.7816 7.28561,0.31151 z m -5.23898,-8.58423 c -0.30931,-0.50051 -0.0943,-1.1993 0.47788,-1.55292 1.44669,-0.89409 4.13692,0.27754 3.39472,1.47845 -0.76402,1.23624 -3.12651,1.28164 -3.8726,0.0745 z m 27.81747,10.25406 c 0,-0.77473 -0.43988,-1.68045 -0.97751,-2.01272 -0.53764,-0.33227 -0.97751,0.30159 -0.97751,1.40857 0,1.10701 0.43987,2.01272 0.97751,2.01272 0.53763,0 0.97751,-0.63385 0.97751,-1.40857 z M 53.048936,188.99077 c 0.822481,-2.38095 0.859304,-3.7421 0.12616,-4.66357 -0.73306,-0.92134 -0.709192,-1.82352 0.08173,-3.09002 0.888982,-1.42345 0.809061,-1.90692 -0.391406,-2.36758 -1.784467,-0.68478 -3.539947,0.18252 -2.798307,1.38253 0.286356,0.46333 0.06641,1.12316 -0.48876,1.46627 -0.555173,0.34313 -0.75753,1.03138 -0.449681,1.52951 0.307849,0.4981 -0.628974,2.00729 -2.081826,3.35374 -2.235483,2.07177 -2.666882,3.11809 -0.908625,2.20375 0.258464,-0.13443 1.179265,0.76833 2.046228,2.00608 2.026667,2.89349 3.415579,2.37362 4.864499,-1.82071 z m 109.127044,-3.5413 c -0.70564,-0.28238 -1.54876,-0.24765 -1.87358,0.0771 -0.32481,0.32481 0.25255,0.55585 1.283,0.51341 1.13876,-0.047 1.37038,-0.27854 0.59058,-0.59058 z M 46.999287,183.67343 c 0.309465,-0.80644 0.183648,-1.46627 -0.279591,-1.46627 -0.463241,0 -1.095452,0.65983 -1.404916,1.46627 -0.309466,0.80645 -0.18365,1.46627 0.279591,1.46627 0.463238,0 1.095452,-0.65982 1.404916,-1.46627 z m 121.653783,-1.92705 c -0.25515,-2.18549 0.0547,-3.5663 0.87057,-3.87935 0.69671,-0.26736 1.26671,-1.00797 1.26671,-1.64579 0,-0.69142 -0.78946,-0.44525 -1.95503,0.60957 -1.84084,1.66593 -2.06209,1.6724 -3.78771,0.11075 -1.00798,-0.91221 -2.21764,-1.58811 -2.68818,-1.50203 -2.29514,0.42 -3.23893,-0.3516 -4.27679,-3.49628 -0.62102,-1.88172 -1.33605,-3.4213 -1.58898,-3.4213 -0.25291,0 -1.45423,1.15605 -2.66962,2.56904 -5.07064,5.895 -11.32725,-2.70779 -8.80772,-12.11053 1.30551,-4.87207 10.13378,-2.97733 10.13378,2.17497 0,2.96658 1.7501,4.17237 2.62377,1.80777 0.94704,-2.56322 2.38822,-3.2411 4.49426,-2.11397 1.01587,0.54366 2.067,0.76856 2.33582,0.49974 0.92869,-0.92872 -3.66852,-2.70863 -5.49699,-2.12829 -1.20703,0.38311 -2.68357,-0.26698 -4.31747,-1.90088 -4.61811,-4.61813 -10.38251,-2.68914 -11.78993,3.94532 -1.64045,7.73301 6.97204,16.71754 11.17301,11.65566 1.69714,-2.04493 2.44677,-1.84377 3.74471,1.00493 0.61927,1.3592 1.89957,2.73017 2.84507,3.04666 6.05625,2.0271 7.09545,2.82874 7.09545,5.47344 0,1.48164 0.26806,2.69392 0.59572,2.69392 0.32763,0 0.41742,-1.52698 0.19955,-3.39331 z m -8.6154,-1.92102 c 0,-0.70888 -0.62067,-1.80398 -1.37925,-2.43356 -1.9035,-1.57977 -2.92139,0.30398 -1.54943,2.86753 1.11354,2.08069 2.92868,1.81177 2.92868,-0.43397 z m 10.695,-6.34303 c 1.67156,-2.11049 2.62585,-4.09271 2.12067,-4.40491 -0.50517,-0.31224 -1.14128,-0.0152 -1.41357,0.66031 -0.31167,0.77304 -0.52366,0.6244 -0.57227,-0.40121 -0.0425,-0.89607 0.31939,-1.77581 0.80407,-1.95502 0.48466,-0.17923 0.18099,-0.97127 -0.67483,-1.76011 -1.38017,-1.27216 -1.48325,-1.24452 -0.91189,0.24439 0.35427,0.92325 0.29955,1.67863 -0.12168,1.67863 -0.94998,0 -4.06045,6.39037 -4.06045,8.34206 0,2.42813 1.65521,1.60425 4.82989,-2.40414 z m -116.596874,-0.3172 c -0.271175,-0.67204 -0.493049,-0.12224 -0.493049,1.22187 0,1.3441 0.221874,1.89396 0.493049,1.22191 0.271173,-0.67204 0.271173,-1.77173 0,-2.44378 z m 118.963084,0.73314 c 0.30948,-0.80646 0.18366,-1.46629 -0.2796,-1.46629 -0.46322,0 -1.09543,0.65983 -1.4049,1.46629 -0.30947,0.80644 -0.18365,1.46627 0.27959,1.46627 0.46324,0 1.09546,-0.65983 1.40491,-1.46627 z m -8.94336,-2.46543 c 0.9207,-1.61798 1.51277,-3.48469 1.31569,-4.14825 -1.4981,-5.04316 -1.49532,-5.03995 -2.80962,-3.24253 -0.6778,0.92693 -1.87534,1.54431 -2.66127,1.37195 -1.04703,-0.22965 -1.38995,0.5399 -1.28308,2.87931 0.30729,6.72679 2.63291,8.0694 5.43828,3.13952 z m -10.76721,-3.1009 c 1.13363,-2.37056 1.42443,-4.34925 0.91766,-6.24417 -0.47926,-1.79197 -1.00063,-2.35525 -1.47285,-1.5912 -1.07782,1.74397 -4.28605,1.43727 -5.37809,-0.5141 -0.82903,-1.48138 -1.03485,-1.35725 -1.62082,0.97752 -0.82009,3.26749 0.13653,7.45816 2.2337,9.78513 2.08412,2.3125 3.33093,1.74699 5.3204,-2.41318 z m -21.90745,-0.0546 c 0.90204,-1.09342 0.96759,-3.32132 0.33788,-11.48582 -0.16587,-2.15062 -0.30801,-2.23855 -1.18486,-0.73315 -1.20224,2.06414 -4.80929,2.28386 -4.80929,0.29298 0,-0.77976 0.71631,-1.8186 1.59181,-2.30856 2.6959,-1.50869 -0.31317,-2.38985 -3.28958,-0.9633 -7.748,3.71353 -4.84562,16.41976 3.75064,16.41976 1.42745,0 3.04896,-0.54987 3.6034,-1.22191 z m -72.724248,-3.53088 c 0.647225,-2.25674 0.596394,-3.82119 -0.163712,-5.03833 -0.862384,-1.38087 -0.793186,-1.88389 0.31785,-2.31026 0.781152,-0.29975 1.420273,-1.04574 1.420273,-1.65779 0,-0.61201 -0.637421,-0.86816 -1.41649,-0.56919 -0.994644,0.38168 -1.236285,0.0738 -0.811397,-1.03329 0.403019,-1.0503 0.223177,-1.34081 -0.538544,-0.87004 -0.629004,0.38872 -1.150372,1.45062 -1.158601,2.35974 -0.01289,1.42708 -0.147158,1.45259 -0.98227,0.18669 -0.720997,-1.0929 -0.909822,-0.61384 -0.74161,1.88139 0.131697,1.95343 -0.273453,3.51406 -0.972767,3.74715 -1.550331,0.51677 -1.548312,4.38331 0.003,5.93469 1.955881,1.95589 4.040556,0.86864 5.044171,-2.63076 z m -7.526929,-1.84547 c -0.245873,-0.94085 -0.447039,-0.17107 -0.447039,1.71066 0,1.88173 0.201166,2.65152 0.447039,1.71068 0.245873,-0.94089 0.245873,-2.48047 0,-3.42134 z m 20.070313,3.61198 c 3.045316,-1.38753 6.62632,-6.7938 6.62632,-10.0038 0,-3.61173 -4.060347,-6.25424 -7.651508,-4.97969 -1.973216,0.70036 -2.612413,1.58476 -2.612413,3.61466 0,1.47809 -0.609395,3.06603 -1.354201,3.52875 -1.455905,0.90452 -0.836707,5.35407 1.063723,7.64396 1.229531,1.48148 1.119108,1.47595 3.928079,0.19612 z m -0.705053,-10.69894 c -0.818219,-1.32389 0.285857,-2.93254 2.012725,-2.93254 0.774723,0 1.408583,0.87978 1.408583,1.95502 0,2.02377 -2.358267,2.69758 -3.421308,0.97752 z m 29.589187,10.2138 c 3.66094,-2.56423 4.56195,-5.18938 2.54578,-7.41725 -1.36964,-1.51343 -1.51088,-2.30355 -0.65639,-3.67182 2.1703,-3.47521 -3.052893,-6.84406 -7.655464,-4.9376 -2.923684,1.21102 -5.785774,4.83535 -3.818416,4.83535 0.556549,0 1.011907,0.70689 1.011907,1.57088 0,0.95393 -0.544065,1.36207 -1.385376,1.03923 -3.24865,-1.24663 -2.292744,6.2785 1.127466,8.87574 2.198017,1.6691 6.218478,1.53498 8.830493,-0.29453 z m -3.226581,-11.24041 c -0.928848,-1.50291 0.34345,-2.47258 1.598084,-1.21797 0.702032,0.70206 0.718891,1.24882 0.05124,1.66145 -0.547333,0.33827 -1.289534,0.13878 -1.649336,-0.44348 z m 71.862791,9.74281 c 0.007,-0.31363 -0.64485,-0.57022 -1.45128,-0.57022 -1.50695,0 -1.98516,1.76201 -0.79994,2.94722 0.61665,0.61666 2.217,-1.07314 2.25122,-2.377 z M 52.883872,159.18466 c 0.33381,-0.86991 0.16994,-1.26231 -0.38418,-0.91982 -0.531477,0.32846 -0.966319,1.01115 -0.966319,1.51706 0,1.40608 0.70065,1.09623 1.350499,-0.59724 z m 98.356148,0.53952 c 0,-0.53763 -0.43988,-0.97749 -0.9775,-0.97749 -0.53765,0 -0.97754,0.43986 -0.97754,0.97749 0,0.53764 0.43989,0.97755 0.97754,0.97755 0.53762,0 0.9775,-0.43991 0.9775,-0.97755 z m -22.48286,-3.91005 c 0,-0.53764 -0.4399,-0.97752 -0.97753,-0.97752 -0.53762,0 -0.97752,0.43988 -0.97752,0.97752 0,0.53763 0.4399,0.97752 0.97752,0.97752 0.53763,0 0.97753,-0.43989 0.97753,-0.97752 z m 8.79765,-8.27117 c 0,-3.01525 -44.232755,-6.36963 -59.449501,-4.50832 -12.416493,1.51879 -12.488689,3.04741 -0.134643,2.85085 5.620767,-0.0894 12.808132,0.18784 15.971922,0.61617 3.748476,0.50749 8.027982,0.34941 12.284812,-0.45381 5.56321,-1.0497 7.39295,-1.0072 12.33171,0.28632 5.32276,1.39411 18.9957,2.26418 18.9957,1.20879 z m -65.004833,-5.28993 c 18.02849,-2.87245 24.042093,-3.22062 26.606413,-1.54042 2.93033,1.92004 3.08897,1.77596 7.58912,-6.89259 3.16359,-6.09398 3.48092,-7.36227 2.90042,-11.59218 -0.74603,-5.43599 -3.67814,-9.24317 -5.77709,-7.5012 -0.95861,0.79558 -2.34503,0.65723 -5.312498,-0.53011 -4.26472,-1.70638 -6.068382,-1.60722 -17.511689,0.96271 -5.928061,1.33132 -7.581335,1.39226 -9.702984,0.35762 -3.590389,-1.75091 -3.828765,-3.51004 -0.571789,-4.21969 1.516686,-0.33048 3.695178,-1.05292 4.841092,-1.60547 1.145904,-0.55252 3.345314,-0.73511 4.887583,-0.40574 1.700448,0.36315 3.906106,0.0189 5.604012,-0.87439 1.53995,-0.81028 4.098188,-1.47323 5.684982,-1.47323 1.586791,0 3.772508,-0.47494 4.857163,-1.05542 1.537471,-0.82284 2.369577,-0.6957 3.775748,0.57687 1.16667,1.0558 2.5436,1.39743 3.8988,0.9673 1.37158,-0.43533 2.74315,-0.0785 3.97164,1.03324 1.57223,1.42285 2.393,1.52134 5.06191,0.60742 l 3.1854,-1.09082 -3.73283,0.26978 c -3.26032,0.23562 -4.07982,-0.17035 -6.47468,-3.20747 -1.50803,-1.91248 -3.06821,-5.01682 -3.46707,-6.89854 -0.39883,-1.881721 -1.19204,-4.000008 -1.76269,-4.707307 -0.80815,-1.001696 -0.51307,-1.238217 1.33478,-1.069866 4.18922,0.381663 6.7711,-0.0596 6.7711,-1.157172 0,-1.284874 -7.67724,-0.39912 -13.302527,1.534763 -3.005338,1.033188 -3.923726,1.944869 -4.600694,4.56712 -0.465189,1.801942 -1.295247,3.820492 -1.844563,4.485692 -0.549314,0.6652 -0.760468,1.83043 -0.469226,2.5894 0.375219,0.9778 -0.71609,1.69359 -3.744807,2.45623 -7.580387,1.90876 -10.91927,1.28906 -9.377014,-1.74039 0.442992,-0.87018 1.097156,-3.11582 1.453704,-4.99035 0.561426,-2.951702 0.464371,-3.213567 -0.72466,-1.95503 -0.755103,0.79925 -2.119921,3.76256 -3.032932,6.58515 -1.371728,4.24073 -2.054142,5.13195 -3.929606,5.13195 -1.655709,0 -2.553313,0.81382 -3.318473,3.00875 -0.905521,2.59759 -1.458347,2.96582 -4.045236,2.69446 -1.858747,-0.19497 -3.332411,0.22943 -3.881455,1.1178 -0.764338,1.23672 -1.759108,1.14794 -7.291831,-0.65088 -3.523707,-1.14564 -6.406742,-1.89744 -6.406742,-1.67064 0,0.53786 10.462017,7.23069 11.302779,7.23069 0.354202,0 -0.394459,-0.85052 -1.663704,-1.89006 -2.270381,-1.85945 -2.213289,-1.8591 3.530066,0.0216 6.362929,2.08353 10.013132,4.44832 4.366674,2.82892 -1.841905,-0.52819 -3.461798,-0.9604 -3.599752,-0.9604 -0.137965,0 -0.257567,0.76978 -0.265798,1.71067 -0.01289,1.47683 -0.157342,1.51022 -1.056589,0.24436 -0.80206,-1.12906 -0.906732,-0.84804 -0.45516,1.22191 0.32254,1.47848 0.179365,2.68815 -0.318182,2.68815 -0.497547,0 -0.656567,0.94856 -0.353402,2.1079 0.362768,1.38719 0.183959,1.88092 -0.522971,1.44398 -0.695494,-0.42982 -1.008248,0.2917 -0.887115,2.04658 0.128503,1.86189 1.46687,3.76802 4.274912,6.08851 2.248309,1.85792 3.81734,3.81573 3.486727,4.35065 -0.365368,0.59118 -0.761351,0.49198 -1.009649,-0.25292 -0.287049,-0.86116 -0.805885,-0.70154 -1.744974,0.53692 -2.235407,2.94797 -1.576315,3.35845 2.267054,1.41198 2.016129,-1.02105 6.744866,-2.34708 10.508303,-2.94671 z m 27.298078,-2.40406 c -0.309186,-0.80575 -0.375323,-2.71183 -0.146981,-4.23572 0.349146,-2.33002 0.438496,-2.18767 0.561666,0.89494 0.0806,2.01612 0.47953,3.66568 0.88664,3.66568 0.40709,0 0.58285,-1.97812 0.39057,-4.39583 -0.19229,-2.4177 -0.74027,-4.15439 -1.21775,-3.8593 -0.477476,0.29509 -0.638838,-0.0611 -0.358608,-0.79127 0.280258,-0.73027 -0.604015,-2.62262 -1.965027,-4.20521 -1.361011,-1.58258 -2.475105,-2.36894 -2.475759,-1.74749 -9.01e-4,0.85491 -0.594185,0.85491 -2.437361,0 -2.013683,-0.93396 -2.437484,-1.82415 -2.44379,-5.1331 l -0.0077,-4.0032 8.23774,0.0932 c 7.758255,0.0876 8.262695,0.22257 8.666805,2.31729 0.23601,1.22328 0.0522,4.24122 -0.40832,6.7066 -0.46058,2.46534 -0.59568,4.87355 -0.30023,5.35157 0.29564,0.47802 0.0456,0.86914 -0.55555,0.86914 -0.60109,0 -0.82102,0.43988 -0.48875,0.97753 0.33229,0.53763 0.11233,0.9775 -0.48877,0.9775 -0.60107,0 -0.82101,0.4399 -0.48873,0.97752 0.33226,0.53764 0.11233,0.9775 -0.48876,0.9775 -0.6011,0 -0.82104,0.43989 -0.48876,0.97754 0.33227,0.53763 0.11905,0.9775 -0.47392,0.9775 -0.59294,0 -0.9488,0.72418 -0.79083,1.60924 0.36939,2.0695 -1.97605,2.93116 -2.717707,0.99842 z m 5.260365,-21.18045 c 0.82043,0 1.23159,-0.26011 0.91369,-0.57802 -0.31791,-0.31789 -1.44454,-0.30298 -2.50363,0.0331 -1.33306,0.42309 -2.06237,1.72899 -2.37,4.24369 -0.7156,5.8494 0.61618,7.05407 1.58431,1.43313 0.61364,-3.56282 1.34002,-5.13195 2.37563,-5.13195 z m -46.165442,19.63689 c -1.913137,-2.114 -1.765523,-7.03383 0.230734,-7.68981 0.707563,-0.23251 1.528658,0.50337 1.82466,1.63528 0.443901,1.69749 1.288808,2.05801 4.822997,2.05801 5.193027,0 5.423848,1.08987 0.807634,3.8135 -4.290651,2.53154 -5.533826,2.56114 -7.686025,0.18302 z m 5.507641,-1.80872 c -1.836609,-0.6122 -4.3416,0.57224 -3.633468,1.71799 0.402141,0.6507 1.338474,0.59722 2.747525,-0.15687 1.382882,-0.7401 1.695648,-1.29122 0.885943,-1.56112 z m -2.086264,-6.831 c -0.548006,-0.94086 -1.01648,-1.27077 -1.041055,-0.73314 -0.06246,1.36651 -1.936481,-1.67905 -1.954828,-3.17692 -0.0077,-0.67207 0.948874,-1.22192 2.126897,-1.22192 2.099384,0 2.104235,0.0303 0.24438,1.52022 -1.866487,1.49538 -1.86555,1.50493 0.05757,0.58514 1.075269,-0.51427 2.394916,-0.97841 2.932549,-1.03144 1.25301,-0.12354 1.360359,-2.18787 0.194995,-3.74962 -1.497506,-2.00688 -0.05356,-3.8922 3.393067,-4.43035 2.682187,-0.41877 3.813271,0.0232 6.431482,2.51319 3.99593,3.80025 3.99593,5.20181 0,6.87214 -1.74731,0.73038 -3.780643,2.05593 -4.518512,2.94567 -1.778748,2.1448 -6.596289,2.0879 -7.866523,-0.093 z m 12.575328,-6.24557 c 0.02972,-0.88128 -0.832034,-2.64082 -1.915064,-3.91006 l -1.969147,-2.30771 1.701142,3.10464 c 1.687145,3.07907 1.679225,3.12492 -0.9634,5.57404 -3.554417,3.29414 -3.406177,4.27482 0.213919,1.41522 1.583155,-1.25056 2.902803,-2.99483 2.93255,-3.87613 z m -4.028691,-2.14432 c 0.213112,-1.09881 -0.344113,-1.62966 -1.710653,-1.62966 -2.233555,0 -2.298295,0.10997 -1.417504,2.40515 0.744349,1.93977 2.695364,1.45608 3.128157,-0.77549 z m 36.971348,5.21295 c 0.7736,-4.21583 1.32938,-5.01102 1.30952,-1.87358 -0.007,1.2993 -0.4475,3.02217 -0.97616,3.82862 -0.67624,1.0316 -0.77506,0.45205 -0.33336,-1.95504 z m -47.877153,-8.4718 c -1.388826,-1.38881 -0.453911,-1.79828 4.487923,-1.96561 l 5.124318,-0.17348 -3.910065,1.38066 c -4.513537,1.59376 -4.825375,1.63525 -5.702176,0.75843 z m 31.850738,-12.75064 c -1.629851,-0.59464 -1.494992,-2.29835 0.370587,-4.6817 1.45165,-1.85456 1.494927,-1.78548 0.841894,1.34418 -0.453439,2.17315 -0.344748,3.08684 0.318437,2.67697 0.553763,-0.34225 1.295573,-1.93686 1.648475,-3.5436 0.703656,-3.203737 1.25656,-3.429603 4.594749,-1.87699 2.561793,1.19151 6.299253,5.79826 4.704153,5.79826 -0.57961,0 -1.30703,-0.65982 -1.61649,-1.46628 -0.78406,-2.0432 -5.200573,-1.83208 -7.621875,0.36434 -1.109922,1.00684 -2.567886,1.63 -3.23993,1.38482 z m 27.422675,37.20432 3.7179,-0.61436 -2.67889,-2.79617 c -2.73712,-2.85697 -5.48557,-3.97461 -3.30099,-1.34234 1.7202,2.07272 0.56601,4.37355 -1.87392,3.7355 -1.10211,-0.28822 -1.74968,-0.93525 -1.43904,-1.43789 0.33327,-0.53924 1.13016,-0.44462 1.94405,0.23084 1.09276,0.9069 1.37924,0.80888 1.37924,-0.47196 0,-1.66139 -2.56323,-3.22797 -3.59438,-2.19683 -0.31762,0.31765 -0.6998,1.69163 -0.84926,3.05331 -0.29809,2.71545 0.33838,2.89036 6.69529,1.8399 z m -8.64356,-1.38072 c -0.8106,-1.31159 2.29348,-4.82597 4.26253,-4.82597 0.81274,0 1.2159,-0.26182 0.89591,-0.58179 -0.31998,-0.31998 -1.93652,-0.28423 -3.59234,0.0796 -3.54109,0.77776 -5.90982,4.18032 -3.82837,5.49928 1.83719,1.16417 3.03162,1.07391 2.26227,-0.17096 z m 19.06076,-2.82624 c 2.43572,-1.54068 -1.50112,-4.93117 -5.73337,-4.93774 -1.93277,-0.002 -5.21497,-0.47771 -7.29373,-1.05491 -3.9856,-1.10668 -8.4394,-0.53724 -8.4394,1.07897 0,0.52741 1.64958,0.96613 3.66568,0.97498 2.09712,0.0102 5.33885,1.0155 7.57577,2.35164 4.15978,2.48474 7.8904,3.06378 10.22505,1.58706 z m -13.45231,-11.48894 c -0.2438,-1.74536 0.26118,-2.16319 2.92457,-2.4197 4.04432,-0.38953 5.30675,-3.73136 1.40956,-3.73136 -1.35178,0 -2.73352,-0.44619 -3.07054,-0.99149 -0.33701,-0.54532 -2.45243,-1.91336 -4.7009,-3.0401 -2.24847,-1.12673 -3.53825,-1.47238 -2.86622,-0.76804 0.67205,0.70429 1.22188,3.52396 1.22188,6.26589 0,2.74195 0.5407,5.52603 1.20159,6.18689 1.84428,1.8443 4.2191,0.92497 3.88006,-1.50209 z m 5.67103,-8.59486 c 0,-0.80644 -0.65981,-1.46627 -1.46626,-1.46627 -0.80645,0 -1.46628,0.65983 -1.46628,1.46627 0,0.80645 0.65983,1.46627 1.46628,1.46627 0.80645,0 1.46626,-0.65982 1.46626,-1.46627 z m -57.191596,-4.38763 c 0.342466,-0.55409 -0.04995,-0.71796 -0.919821,-0.38417 -1.693471,0.64985 -2.003314,1.3505 -0.597225,1.3505 0.505904,0 1.188581,-0.43484 1.517046,-0.96633 z m 15.598308,-1.09167 c 0.582874,-0.5489 0.503957,-1.29922 -0.211955,-2.01513 -0.86912,-0.86911 -2.087475,-0.71362 -5.118853,0.65335 -2.786293,1.25644 -3.601434,2.03697 -2.720594,2.60512 1.407751,0.90801 6.621969,0.10275 8.051402,-1.24334 z m 8.583895,-1.19684 c 4.573545,-1.59294 5.391951,-2.39127 3.281583,-3.20111 -1.678798,-0.64421 -8.395295,2.35247 -8.395295,3.74571 0,1.02902 0.857976,0.93765 5.113712,-0.5446 z m 11.504073,0.38001 c 0,-1.15333 -1.9065,-2.3871 -2.606714,-1.6869 -0.700205,0.70022 0.533556,2.60672 1.686889,2.60672 0.505903,0 0.919825,-0.41393 0.919825,-0.91982 z m 33.82612,-1.74801 c -0.99366,-0.99364 -1.81353,0.50234 -0.99825,1.8215 0.61587,0.99649 0.84611,0.99725 1.17721,0.003 0.22639,-0.67918 0.14586,-1.50061 -0.17896,-1.82545 z m -68.426132,-0.9775 c -0.324826,-0.32482 -0.555854,0.25253 -0.51341,1.28299 0.04694,1.13876 0.278534,1.37038 0.590577,0.59059 0.282375,-0.70564 0.247656,-1.54876 -0.07712,-1.87358 z m 50.729022,1.69029 c 0.33225,-0.53763 -0.3016,-0.97752 -1.40859,-0.97752 -1.10701,0 -2.01275,0.43989 -2.01275,0.97752 0,0.53763 0.63388,0.97753 1.40859,0.97753 0.77473,0 1.68044,-0.4399 2.01275,-0.97753 z M 12.677096,107.26857 c -0.672043,-0.27116 -1.771747,-0.27116 -2.44379,0 -0.6720436,0.27118 -0.122194,0.49307 1.221897,0.49307 1.344082,0 1.893936,-0.22189 1.221893,-0.49307 z m 2.525251,-0.72554 c -0.179212,-0.30708 1.323718,-1.67926 3.339849,-3.04925 3.051017,-2.07321 3.665688,-3.05868 3.665688,-5.876964 0,-1.862335 0.46584,-3.386065 1.035204,-3.386065 0.569363,0 0.75891,-0.447059 0.421213,-0.993463 -0.337697,-0.546403 -1.02348,-0.740385 -1.523963,-0.431067 -0.500486,0.309316 -0.909975,0.09655 -0.909975,-0.472813 0,-0.569363 0.465845,-1.035205 1.035208,-1.035205 0.569364,0 0.75891,-0.447059 0.421214,-0.993464 -0.337697,-0.546402 -0.913509,-0.836122 -1.279586,-0.643819 -0.366076,0.192302 -1.435387,-0.460345 -2.376245,-1.450329 -0.940861,-0.989985 -1.402736,-1.799972 -1.026394,-1.799972 0.376344,0 0.196901,-0.487363 -0.398764,-1.083025 -1.494597,-1.494598 -8.1056281,0.721108 -8.1056281,2.716623 0,0.81509 -0.9046429,1.718548 -2.0103171,2.007691 -1.2337967,0.322643 -1.8044975,1.062073 -1.4774718,1.914288 0.2930658,0.763717 0.1440973,1.148317 -0.3310447,0.854663 -0.4751392,-0.293652 -1.1248858,0.146231 -1.4438792,0.977517 -0.3321213,0.865489 -0.1670153,1.256197 0.3863286,0.914213 0.5563072,-0.343817 0.9663191,0.671545 0.9663191,2.39302 0,1.644631 -0.4765396,2.990241 -1.0589763,2.990241 -0.5824366,0 -0.8573633,0.54985 -0.6109476,1.22189 0.2464156,0.67204 0.8553152,1.14113 1.3531116,1.0424 0.497795,-0.0987 1.4842789,0.78103 2.1921887,1.95503 1.0648777,1.76599 1.0647264,1.92356 -8.803e-4,0.91264 -0.708392,-0.67204 -1.7498641,-1.20853 -2.3143802,-1.19216 -0.5645148,0.0163 -0.1466262,0.54305 0.9286432,1.17046 1.0752664,0.62742 3.3846492,1.02022 5.1319601,0.8729 2.024341,-0.17067 3.176929,0.17307 3.176929,0.94747 0,0.66843 0.256596,0.95873 0.570216,0.64511 0.313621,-0.31361 0.423592,-0.82147 0.24438,-1.12856 z m -6.069875,-5.01791 c -0.3342814,-0.87112 0.060432,-1.74783 0.938639,-2.08483 1.825378,-0.70046 3.822796,1.03716 2.903006,2.52542 -0.959218,1.55204 -3.174491,1.29797 -3.841645,-0.44059 z m 2.062057,-14.258323 c 0.663084,-0.668052 1.451847,-0.968397 1.752813,-0.667432 0.300965,0.300965 -0.241557,0.847555 -1.205603,1.214643 -1.393155,0.530483 -1.505436,0.4182 -0.54721,-0.547211 z m 69.005129,18.938493 c 0.238533,-0.40323 0.733236,-2.71261 1.099356,-5.13196 0.630732,-4.167993 0.593273,-4.267167 -0.713803,-1.88988 -1.923596,3.49859 -2.888326,7.75496 -1.757692,7.75496 0.516148,0 1.133605,-0.3299 1.372139,-0.73312 z m 34.196362,-1.91773 c 1.17356,0.45034 1.61332,-0.61274 2.14363,-5.18174 0.76227,-6.567821 0.30529,-7.807657 -2.87769,-7.807657 -2.52935,0 -3.44238,2.104354 -3.46428,7.984567 -0.017,4.57694 0.9438,7.31526 1.97908,5.64019 0.40854,-0.66106 1.40721,-0.94697 2.21926,-0.63536 z m -1.5784,-3.83934 c -0.78097,-0.78096 0.10175,-2.30744 1.33447,-2.30744 0.50592,0 0.91985,0.65982 0.91985,1.46627 0,1.51164 -1.15344,1.94203 -2.25432,0.84117 z m -91.587257,3.49997 c 0,-0.56937 -0.439882,-0.76335 -0.977514,-0.43108 -1.252574,0.77415 -1.252574,1.46628 0,1.46628 0.537632,0 0.977514,-0.46584 0.977514,-1.0352 z m 63.208443,-2.14172 c -0.271175,-0.67205 -0.493051,-0.1222 -0.493051,1.22189 0,1.34409 0.221876,1.89393 0.493051,1.22189 0.27117,-0.67204 0.27117,-1.77175 0,-2.44378 z m -60.275894,0.18668 c 0,-0.50591 -0.439879,-0.91982 -0.977515,-0.91982 -0.537633,0 -0.977513,0.68578 -0.977513,1.52397 0,0.83818 0.43988,1.25209 0.977513,0.91981 0.537636,-0.33227 0.977515,-1.01806 0.977515,-1.52396 z m 43.601311,-0.65508 c -0.324831,-0.32482 -0.555855,0.25252 -0.513412,1.28298 0.04693,1.13876 0.278534,1.37039 0.590578,0.59059 0.282374,-0.70564 0.247652,-1.54875 -0.07712,-1.87357 z m 20.248432,-4.148775 c -1.93255,-1.88212 -3.243724,-1.684163 -3.243724,0.489734 0,0.823201 0.590285,1.151391 1.466276,0.815241 0.806449,-0.30946 1.466274,-0.0498 1.466274,0.57713 0,0.62688 0.469944,0.84935 1.044309,0.49437 0.676228,-0.41793 0.417832,-1.25553 -0.733135,-2.376475 z M 72.877562,87.143717 c 0.04664,-2.284943 0.228924,-6.8342 0.405113,-10.109453 0.219841,-4.08673 0.002,-5.657462 -0.694937,-5.006595 -1.110489,1.037348 -1.410653,5.585265 -0.368631,5.585265 0.802815,0 0.532472,2.033077 -0.487448,3.665683 -0.419834,0.672045 -0.449258,1.221897 -0.06538,1.221897 0.383871,0 -0.031,0.805491 -0.921954,1.789981 -0.890956,0.98449 -1.289044,2.120852 -0.884643,2.525251 0.404398,0.404398 0.790253,1.138495 0.857459,1.631327 0.06714,0.49283 0.177174,1.335939 0.24438,1.873572 0.06717,0.537635 0.506733,0.977518 0.976732,0.977518 0.469999,0 0.892698,-1.869501 0.939317,-4.154446 z m 72.777078,1.305661 c -2.50968,-2.094639 -10.81972,-3.619994 -12.20027,-2.239424 -0.91875,0.918741 8.19328,3.842058 12.40931,3.981149 1.87392,0.0618 1.86522,-0.01052 -0.20904,-1.741725 z m 6.56289,-0.14803 c 0,-3.800138 -1.92975,-5.63305 -8.05445,-7.650198 -15.40626,-5.074008 -41.07854,-6.722469 -57.439115,-3.688264 -6.689623,1.240647 -8.747258,2.047598 -10.558293,4.140674 -4.460659,5.155361 -0.205081,7.637588 5.77296,3.367297 3.419517,-2.44266 12.028622,-3.895106 17.775224,-2.998866 2.574544,0.401531 7.886314,0.524349 11.803914,0.27293 3.91841,-0.251468 9.50847,0.0817 12.42553,0.74055 2.91645,0.658717 8.21194,1.359584 11.76782,1.557484 7.66622,0.42666 11.11044,1.580066 12.80084,4.286799 1.60831,2.575361 3.70557,2.559285 3.70557,-0.02842 z M 21.230363,87.388096 c 0,-0.537634 -0.465844,-0.977516 -1.035205,-0.977516 -0.569362,0 -0.763344,0.439882 -0.431067,0.977516 0.332275,0.537634 0.798117,0.977516 1.035205,0.977516 0.237089,0 0.431067,-0.439882 0.431067,-0.977516 z m 77.848994,-1.955033 c 2.344313,0 4.262383,-0.439882 4.262383,-0.977518 0,-1.592042 -12.858571,-1.114183 -15.640259,0.581236 -2.355533,1.435677 -2.271163,1.469732 2.335845,0.942879 2.628805,-0.300629 6.697716,-0.546597 9.042031,-0.546597 z m 29.237583,-0.187898 c -2.55349,-1.481276 -21.91974,-2.377714 -20.57637,-0.952451 0.88758,0.941714 5.78615,1.456329 18.08402,1.899794 3.70398,0.133563 4.09768,-0.01609 2.49235,-0.947343 z m 26.59219,-5.677201 c 0.43976,0 0.79954,-0.879764 0.79954,-1.95503 0,-1.075269 -0.41893,-1.955036 -0.93098,-1.955036 -0.51201,0 -0.63675,-0.294213 -0.27714,-0.653809 0.77072,-0.770737 -2.14407,-4.233772 -3.56356,-4.233772 -0.53761,0 -0.2495,0.804431 0.64029,1.787625 1.86173,2.057179 2.05536,4.365874 0.59504,7.094489 -0.56247,1.051033 -0.70997,2.416969 -0.32776,3.035411 0.45062,0.72912 0.97094,0.378354 1.47997,-0.997719 0.43176,-1.167187 1.14485,-2.122159 1.5846,-2.122159 z m -9.48205,-2.380956 c -1.28164,-1.544284 -4.58031,-2.446104 -10.99736,-3.006564 -2.31345,-0.202055 -6.84687,-1.116259 -10.0742,-2.031562 -4.33106,-1.228306 -7.36853,-1.476705 -11.59711,-0.948379 -3.15101,0.393694 -5.34915,1.070267 -4.88473,1.50349 0.4644,0.433224 6.34292,1.267735 13.06335,1.85447 6.72042,0.586739 14.19841,1.690471 16.61778,2.452747 2.41934,0.76227 5.44238,1.429438 6.71791,1.482592 1.90839,0.07953 2.11282,-0.15191 1.15436,-1.306794 z m 5.81294,-0.970527 c 0,-3.239617 -1.95313,-4.939258 -8.48392,-7.382731 -16.18934,-6.057215 -49.546246,-6.351546 -63.076157,-0.556561 -1.465475,0.627674 -1.559764,0.337986 -0.777645,-2.389118 0.746902,-2.60428 0.670734,-2.921385 -0.473616,-1.971659 -0.750019,0.62246 -1.139891,1.714914 -0.866382,2.427674 0.273518,0.712761 0.02024,1.59076 -0.562806,1.951109 -0.583059,0.360349 -0.825806,1.03427 -0.539451,1.497606 0.286353,0.463335 0.0736,1.118722 -0.472817,1.45642 -1.421815,0.878735 -1.230496,5.386904 0.228438,5.382541 0.672042,-0.002 2.753263,-0.937186 4.624932,-2.078171 5.39068,-3.286197 10.16891,-4.622502 16.815428,-4.702686 19.621396,-0.236721 24.465706,-0.07765 28.191646,0.925622 2.26946,0.611102 5.97405,1.261662 8.23243,1.44569 6.58646,0.536705 12.2159,2.394309 13.50333,4.455811 1.65345,2.647607 3.65659,2.394762 3.65659,-0.461547 z M 97.656531,73.702865 c 1.039793,0 1.618665,-0.439882 1.286391,-0.977513 -0.928346,-1.502101 -5.755259,-1.15965 -7.87768,0.558891 -1.796019,1.454257 -1.721073,1.506528 1.401633,0.977518 1.814513,-0.307393 4.14986,-0.558896 5.189656,-0.558896 z m 5.868489,-1.645271 c -0.70564,-0.282375 -1.54875,-0.247647 -1.87358,0.07717 -0.3248,0.324822 0.25255,0.555856 1.283,0.513411 1.13876,-0.04691 1.37037,-0.278536 0.59058,-0.590583 z m 47.715,-3.718935 c 0,-0.736318 -0.67553,-2.014297 -1.50118,-2.839948 -0.82566,-0.825651 -1.53818,-1.846808 -1.58338,-2.269235 -0.0451,-0.422427 -0.46936,-1.786421 -0.94261,-3.031095 -0.47323,-1.244676 -0.8604,-2.832306 -0.8604,-3.528065 0,-0.695757 -1.78827,-3.296585 -3.97393,-5.779619 -5.8273,-6.620183 -16.28874,-11.55204 -25.79868,-12.162354 -5.47501,-0.351361 -7.71184,-0.925286 -8.95345,-2.297253 -0.91032,-1.005885 -2.06058,-1.828879 -2.55612,-1.828879 -0.49555,0 0.40591,1.099707 2.00327,2.443791 1.59734,1.344086 4.13231,2.443791 5.63325,2.443791 4.00005,0 14.96571,2.887286 19.47166,5.12693 5.61979,2.793268 7.20627,4.463497 8.37997,8.822261 0.57219,2.124956 2.17417,4.914337 3.55993,6.198622 3.30336,3.061468 2.41052,2.945709 -4.60851,-0.597483 -3.23673,-1.633896 -7.36235,-2.932551 -9.31622,-2.932551 -2.40189,0 -3.28713,-0.3556 -2.80941,-1.12855 0.43215,-0.699218 0.26817,-0.863209 -0.43104,-0.431071 -2.20037,1.359893 -1.07,2.293041 3.51464,2.901423 5.16538,0.685446 15.64552,5.289195 17.70465,7.777351 0.73219,0.884746 1.09239,2.231047 0.80049,2.991784 -0.29195,0.760737 -0.27979,1.634143 0.0269,1.940907 0.83891,0.83887 2.24012,-0.30005 2.24012,-1.820757 z m -3.91004,-0.290131 c 0,-1.776276 -12.36915,-6.874588 -15.04682,-6.201985 -0.48003,0.120582 -3.58394,-0.460685 -6.89757,-1.291708 -8.58428,-2.152859 -30.83127,-0.818992 -39.041575,2.340823 -4.90728,1.888612 -2.226734,2.055509 8.133543,0.506417 8.312082,-1.242848 12.161812,-1.314472 22.402602,-0.416804 12.09225,1.059961 21.6425,2.76042 26.53973,4.72549 3.07117,1.232346 3.91009,1.304815 3.91009,0.337767 z m -31.03617,-6.776009 c 1.4785,-0.223971 3.89784,-0.223971 5.37635,0 1.47849,0.223972 0.26882,0.407224 -2.68818,0.407224 -2.95698,0 -4.16664,-0.183252 -2.68817,-0.407224 z m -32.013635,0.700152 c 0.332277,-0.537635 0.164251,-0.977519 -0.373383,-0.977519 -0.537634,0 -1.249375,0.439884 -1.581652,0.977519 -0.332277,0.537632 -0.164252,0.977513 0.373385,0.977513 0.537632,0 1.249371,-0.439881 1.58165,-0.977513 z m -2.061465,-1.48643 c 3.281961,-2.150422 16.258339,-4.402296 24.38594,-4.231851 6.13153,0.128571 6.45469,0.219632 2.60217,0.733136 -2.41935,0.322473 -3.93464,0.889233 -3.36734,1.25946 0.56732,0.370228 2.76673,0.270751 4.88757,-0.221058 2.12088,-0.491809 5.72561,-0.904694 8.01057,-0.917519 2.28494,-0.01289 4.15443,-0.378887 4.15443,-0.813465 0,-0.434578 -2.24724,-0.739176 -4.9939,-0.676889 l -4.99386,0.11325 0.46735,-4.86355 c 0.30737,-3.199088 1.09648,-5.347589 2.3057,-6.2779 1.18155,-0.909023 1.3145,-1.259378 0.3721,-0.980604 -1.98476,0.58712 -3.87803,4.523244 -3.89586,8.09949 -0.0141,2.688022 -0.29416,2.931476 -3.3671,2.919696 -4.40102,-0.01686 -4.96926,-0.755997 -2.95023,-3.837447 1.58727,-2.422473 1.58165,-2.654825 -0.10928,-4.523256 -1.70381,-1.882716 -1.70706,-2.097217 -0.0735,-4.862533 1.69346,-2.866793 1.52164,-3.245194 -1.35397,-2.982099 -0.81734,0.07478 -2.27641,-1.201968 -3.24238,-2.837226 -0.96596,-1.635251 -2.199832,-2.69906 -2.74195,-2.364018 -0.578991,0.357837 -0.138385,1.398511 1.067923,2.522369 l 2.053577,1.913203 -2.713126,2.932498 c -3.163684,3.419477 -6.804961,5.763096 -5.65637,3.640586 0.392699,-0.725681 -0.324008,-0.198942 -1.592689,1.170531 -1.268677,1.369473 -2.08675,2.008566 -1.817935,1.420204 0.268819,-0.588362 -0.330623,-0.16925 -1.33209,0.931356 -1.001465,1.100607 -2.321113,2.010975 -2.93255,2.02304 -0.611437,0.01206 -0.972306,0.826003 -0.801942,1.808751 0.183526,1.058681 -0.110673,1.526977 -0.721936,1.149186 -0.648447,-0.400756 -0.79258,-0.01448 -0.388026,1.039779 0.411047,1.071168 0.263303,1.442315 -0.408788,1.026936 -0.681115,-0.42095 -0.857847,0.09376 -0.500899,1.458775 0.375172,1.434654 0.193285,1.887796 -0.568719,1.416853 -0.749345,-0.463116 -0.907164,-0.136955 -0.476629,0.985018 0.471283,1.228134 0.296923,1.463094 -0.650985,0.877251 -0.824506,-0.509576 -1.060115,-0.420636 -0.648787,0.244912 0.35524,0.574785 0.09325,1.267845 -0.582101,1.540136 -0.675397,0.272293 -0.8826,0.529805 -0.46046,0.57225 0.42214,0.04243 1.788395,-0.591724 3.036108,-1.409259 z m 49.471,-0.364021 c 0,-1.1267 -2.51258,-2.081338 -5.21191,-1.980223 -1.82319,0.06831 -1.70952,0.267109 0.81309,1.422185 3.50652,1.605617 4.39882,1.718814 4.39882,0.558038 z m -31.09723,-1.749855 c -0.705642,-0.282377 -1.548752,-0.247648 -1.873572,0.07717 -0.32482,0.324824 0.252524,0.555857 1.282982,0.513411 1.13876,-0.04691 1.37038,-0.278535 0.59059,-0.590583 z m 16.93818,-10.065748 c 0.65732,-3.071566 0.57325,-3.273637 -0.86535,-2.079718 -0.95061,0.78895 -1.58138,2.752855 -1.56365,4.868404 0.0344,4.092129 1.25682,2.688558 2.429,-2.788686 z m 8.87418,0.613384 c -0.73907,-3.939627 -1.95699,-5.15213 -5.96205,-5.935483 l -2.92709,-0.572514 3.13486,1.457076 c 3.44252,1.600071 5.17403,4.093142 5.17403,7.449564 0,1.20022 0.27276,1.909472 0.60611,1.576119 0.33337,-0.333353 0.32173,-2.121999 -0.0259,-3.974762 z m -3.51279,-1.610079 c 0,-0.537633 -0.46584,-0.977514 -1.0352,-0.977514 -0.56937,0 -0.76336,0.439881 -0.43107,0.977514 0.33228,0.537636 0.79811,0.977521 1.03521,0.977521 0.23708,0 0.43106,-0.439885 0.43106,-0.977521 z M 96.499128,41.933583 c 0.669301,-0.806451 0.996964,-1.466273 0.728149,-1.466273 -0.268819,0 -1.036369,0.659822 -1.705664,1.466273 -0.669298,0.80645 -0.996959,1.466275 -0.728143,1.466275 0.268818,0 1.036364,-0.659825 1.705658,-1.466275 z m 1.293973,-5.597098 c -0.516815,-0.685034 -1.037044,-4.324692 -1.156063,-8.08813 -0.175601,-5.552883 -0.597899,-7.165049 -2.240479,-8.553269 -1.113245,-0.940858 -2.626792,-1.710655 -3.363438,-1.710655 -0.736648,0 -1.550555,-0.989735 -1.808679,-2.199412 -1.16125,-5.442036 -1.428211,-5.788872 -1.116676,-1.450829 0.184008,2.562256 -0.12005,4.939604 -0.675649,5.282994 -0.641611,0.396537 -0.70956,0.123387 -0.186228,-0.748581 0.453206,-0.755112 -0.328445,-0.279725 -1.736976,1.056415 -2.596148,2.462707 -2.917085,4.181953 -0.389004,2.083827 1.072834,-0.890372 1.501739,-0.81343 1.947976,0.349461 0.31473,0.820173 1.60168,1.491224 2.859881,1.491224 3.425156,0 5.423202,2.042165 5.738373,5.865099 0.206792,2.508227 -0.07986,3.341366 -1.074213,3.121773 -1.376186,-0.303931 -0.972315,0.42808 2.395965,4.342637 1.29481,1.504808 2.010864,0.755546 0.80521,-0.842554 z m -4.79523,-4.28265 c 2.60299,-0.99886 1.914202,-4.294239 -0.897565,-4.294239 -1.344086,0 -2.443791,-0.439883 -2.443791,-0.977516 0,-0.537635 -1.099709,-0.977518 -2.443791,-0.977518 -2.393723,0 -3.17512,1.594568 -1.710654,3.490863 0.403225,0.52213 -0.03664,0.12148 -0.977518,-0.890305 -0.940859,-1.011795 -1.710653,-1.495619 -1.710653,-1.075169 0,1.682506 3.202871,4.17462 4.651023,3.61891 1.013549,-0.388934 1.29475,-0.200557 0.827986,0.554682 -0.769157,1.244523 2.039706,1.573048 4.704963,0.550292 z M 74.918577,20.014657 C 71.453194,16.54928 71.071513,11.555341 74.005899,8.073182 L 75.95059,5.7654769 74.423007,8.942521 c -0.840167,1.747374 -1.326423,3.94679 -1.080558,4.887584 0.378758,1.449358 0.469022,1.412025 0.591124,-0.244494 0.167233,-2.268623 4.508228,-5.7772765 6.004023,-4.852819 1.439178,0.889455 -0.983978,3.614811 -2.646684,2.97677 -0.791701,-0.303803 -1.536051,0.442956 -1.904388,1.910549 -0.33259,1.32511 -1.012376,2.409288 -1.510634,2.409288 -0.509453,0 -0.448025,0.855624 0.140361,1.955032 0.575464,1.075269 1.524565,1.955033 2.109119,1.955033 0.657497,0 0.737573,-0.483596 0.20998,-1.268057 -0.469052,-0.697429 0.185192,-0.147576 1.453871,1.221897 1.268679,1.369475 2.012509,1.940098 1.652959,1.268055 -0.35955,-0.672042 -0.187887,-1.221895 0.381477,-1.221895 0.569365,0 1.035209,0.659822 1.035209,1.466277 0,2.361364 -2.85685,1.692353 -5.940289,-1.391084 z m 2.518982,-6.624905 c 2.966663,-0.694729 4.510563,-3.145184 3.349037,-5.315519 -0.776986,-1.45181 -0.621004,-1.8397098 0.771019,-1.9174365 1.207272,-0.067414 0.991934,-0.338625 -0.698749,-0.8800778 -2.274933,-0.7285605 -2.295804,-0.7893712 -0.302072,-0.8800778 2.341338,-0.1065238 4.288383,1.9950993 2.424086,2.6165309 -0.636171,0.2120574 -0.896081,0.8072166 -0.577568,1.3225732 1.022325,1.654159 -2.428307,5.745849 -4.743907,5.625228 -1.979058,-0.103087 -1.999215,-0.154998 -0.221846,-0.571221 z"
     id="path3184"
     inkscape:connector-curvature="0" />
  <text
     xml:space="preserve"
     style="font-size:12px;font-style:normal;font-weight:normal;line-height:125%;letter-spacing:0px;word-spacing:0px;fill:#000000;fill-opacity:1;stroke:none;font-family:Sans"
     x="244.28571"
     y="210.2459"
     id="text3906"
     sodipodi:linespacing="125%"><tspan
       sodipodi:role="line"
       id="tspan3908"
       x="244.28571"
       y="210.2459" /></text>
</svg>
